<?xml version="1.0" encoding="UTF-8"?>
<svg xmlns="http://www.w3.org/2000/svg" xmlns:xlink="http://www.w3.org/1999/xlink" width="792" height="468" viewBox="0 0 792 468">
<defs>
<g>
<g id="glyph-0-0">
<path d="M 1.039062 -10.308594 L 4.84375 -10.308594 C 5.703125 -10.308594 6.355469 -10.242188 6.804688 -10.109375 C 7.410156 -9.933594 7.929688 -9.617188 8.359375 -9.160156 C 8.792969 -8.707031 9.121094 -8.148438 9.34375 -7.492188 C 9.570312 -6.832031 9.683594 -6.019531 9.683594 -5.054688 C 9.683594 -4.207031 9.578125 -3.476562 9.367188 -2.863281 C 9.109375 -2.113281 8.738281 -1.503906 8.261719 -1.039062 C 7.902344 -0.6875 7.414062 -0.414062 6.800781 -0.21875 C 6.339844 -0.0742188 5.726562 0 4.957031 0 L 1.039062 0 L 1.039062 -10.308594 M 3.121094 -8.5625 L 3.121094 -1.738281 L 4.675781 -1.738281 C 5.257812 -1.738281 5.675781 -1.769531 5.933594 -1.835938 C 6.273438 -1.917969 6.550781 -2.0625 6.773438 -2.265625 C 6.996094 -2.464844 7.179688 -2.796875 7.320312 -3.257812 C 7.460938 -3.71875 7.53125 -4.351562 7.53125 -5.148438 C 7.53125 -5.945312 7.460938 -6.554688 7.320312 -6.980469 C 7.179688 -7.410156 6.980469 -7.742188 6.730469 -7.980469 C 6.476562 -8.21875 6.15625 -8.382812 5.765625 -8.464844 C 5.476562 -8.53125 4.90625 -8.5625 4.058594 -8.5625 Z M 3.121094 -8.5625 "/>
</g>
<g id="glyph-0-1">
<path d="M 5.359375 -2.375 L 7.328125 -2.046875 C 7.074219 -1.324219 6.671875 -0.773438 6.128906 -0.398438 C 5.582031 -0.0195312 4.898438 0.167969 4.078125 0.167969 C 2.78125 0.167969 1.820312 -0.253906 1.195312 -1.105469 C 0.703125 -1.785156 0.457031 -2.640625 0.457031 -3.675781 C 0.457031 -4.914062 0.78125 -5.882812 1.425781 -6.585938 C 2.074219 -7.285156 2.890625 -7.636719 3.882812 -7.636719 C 4.992188 -7.636719 5.867188 -7.269531 6.511719 -6.535156 C 7.152344 -5.800781 7.460938 -4.679688 7.433594 -3.164062 L 2.480469 -3.164062 C 2.496094 -2.578125 2.65625 -2.121094 2.960938 -1.796875 C 3.265625 -1.46875 3.644531 -1.308594 4.097656 -1.308594 C 4.410156 -1.308594 4.667969 -1.390625 4.878906 -1.5625 C 5.089844 -1.730469 5.25 -2 5.359375 -2.375 M 5.46875 -4.375 C 5.457031 -4.945312 5.308594 -5.378906 5.027344 -5.675781 C 4.746094 -5.976562 4.402344 -6.125 4 -6.125 C 3.570312 -6.125 3.214844 -5.96875 2.933594 -5.652344 C 2.652344 -5.339844 2.511719 -4.914062 2.515625 -4.375 Z M 5.46875 -4.375 "/>
</g>
<g id="glyph-0-2">
<path d="M 4.457031 -7.46875 L 4.457031 -5.890625 L 3.109375 -5.890625 L 3.109375 -2.882812 C 3.109375 -2.273438 3.121094 -1.917969 3.144531 -1.816406 C 3.171875 -1.714844 3.230469 -1.632812 3.320312 -1.566406 C 3.414062 -1.503906 3.523438 -1.46875 3.65625 -1.46875 C 3.839844 -1.46875 4.105469 -1.53125 4.449219 -1.660156 L 4.621094 -0.125 C 4.160156 0.0703125 3.640625 0.167969 3.058594 0.167969 C 2.703125 0.167969 2.382812 0.109375 2.09375 -0.0117188 C 1.808594 -0.128906 1.597656 -0.285156 1.464844 -0.472656 C 1.332031 -0.664062 1.238281 -0.921875 1.1875 -1.246094 C 1.144531 -1.472656 1.125 -1.9375 1.125 -2.636719 L 1.125 -5.890625 L 0.21875 -5.890625 L 0.21875 -7.46875 L 1.125 -7.46875 L 1.125 -8.949219 L 3.109375 -10.105469 L 3.109375 -7.46875 Z M 4.457031 -7.46875 "/>
</g>
<g id="glyph-0-3">
<path d="M 7.542969 -5.257812 L 5.597656 -4.90625 C 5.53125 -5.296875 5.382812 -5.589844 5.148438 -5.785156 C 4.917969 -5.984375 4.617188 -6.082031 4.246094 -6.082031 C 3.753906 -6.082031 3.363281 -5.910156 3.070312 -5.570312 C 2.777344 -5.230469 2.628906 -4.664062 2.628906 -3.867188 C 2.628906 -2.980469 2.777344 -2.355469 3.074219 -1.988281 C 3.375 -1.625 3.773438 -1.441406 4.273438 -1.441406 C 4.648438 -1.441406 4.957031 -1.546875 5.195312 -1.761719 C 5.433594 -1.972656 5.605469 -2.339844 5.703125 -2.863281 L 7.644531 -2.53125 C 7.441406 -1.640625 7.054688 -0.96875 6.484375 -0.511719 C 5.910156 -0.0585938 5.144531 0.167969 4.183594 0.167969 C 3.089844 0.167969 2.21875 -0.175781 1.570312 -0.863281 C 0.921875 -1.554688 0.597656 -2.507812 0.597656 -3.726562 C 0.597656 -4.960938 0.921875 -5.917969 1.574219 -6.605469 C 2.226562 -7.292969 3.109375 -7.636719 4.21875 -7.636719 C 5.128906 -7.636719 5.851562 -7.441406 6.386719 -7.046875 C 6.925781 -6.65625 7.308594 -6.0625 7.542969 -5.257812 Z M 7.542969 -5.257812 "/>
</g>
<g id="glyph-0-4">
<path d="M 1.035156 -8.480469 L 1.035156 -10.308594 L 3.007812 -10.308594 L 3.007812 -8.480469 L 1.035156 -8.480469 M 1.035156 0 L 1.035156 -7.46875 L 3.007812 -7.46875 L 3.007812 0 Z M 1.035156 0 "/>
</g>
<g id="glyph-0-5">
<path d="M 0.578125 -3.839844 C 0.578125 -4.496094 0.738281 -5.128906 1.0625 -5.746094 C 1.386719 -6.359375 1.84375 -6.828125 2.4375 -7.152344 C 3.027344 -7.472656 3.691406 -7.636719 4.421875 -7.636719 C 5.550781 -7.636719 6.476562 -7.269531 7.199219 -6.535156 C 7.921875 -5.800781 8.28125 -4.875 8.28125 -3.753906 C 8.28125 -2.625 7.917969 -1.6875 7.1875 -0.945312 C 6.460938 -0.203125 5.542969 0.167969 4.4375 0.167969 C 3.753906 0.167969 3.097656 0.015625 2.476562 -0.296875 C 1.855469 -0.605469 1.386719 -1.058594 1.0625 -1.65625 C 0.738281 -2.253906 0.578125 -2.980469 0.578125 -3.839844 M 2.601562 -3.734375 C 2.601562 -2.992188 2.777344 -2.425781 3.128906 -2.03125 C 3.480469 -1.636719 3.914062 -1.441406 4.429688 -1.441406 C 4.945312 -1.441406 5.378906 -1.636719 5.726562 -2.03125 C 6.074219 -2.425781 6.25 -2.996094 6.25 -3.746094 C 6.25 -4.480469 6.074219 -5.042969 5.726562 -5.433594 C 5.378906 -5.828125 4.945312 -6.027344 4.429688 -6.027344 C 3.914062 -6.027344 3.480469 -5.828125 3.128906 -5.433594 C 2.777344 -5.042969 2.601562 -4.472656 2.601562 -3.734375 Z M 2.601562 -3.734375 "/>
</g>
<g id="glyph-0-6">
<path d="M 7.824219 0 L 5.851562 0 L 5.851562 -3.8125 C 5.851562 -4.617188 5.808594 -5.136719 5.722656 -5.375 C 5.640625 -5.613281 5.5 -5.796875 5.3125 -5.925781 C 5.121094 -6.058594 4.894531 -6.125 4.625 -6.125 C 4.285156 -6.125 3.976562 -6.03125 3.707031 -5.84375 C 3.433594 -5.65625 3.246094 -5.40625 3.144531 -5.097656 C 3.046875 -4.789062 2.996094 -4.214844 2.996094 -3.382812 L 2.996094 0 L 1.019531 0 L 1.019531 -7.46875 L 2.855469 -7.46875 L 2.855469 -6.371094 C 3.507812 -7.214844 4.328125 -7.636719 5.316406 -7.636719 C 5.75 -7.636719 6.148438 -7.558594 6.511719 -7.398438 C 6.871094 -7.242188 7.144531 -7.042969 7.328125 -6.800781 C 7.515625 -6.554688 7.644531 -6.277344 7.714844 -5.96875 C 7.789062 -5.660156 7.824219 -5.21875 7.824219 -4.640625 Z M 7.824219 0 "/>
</g>
<g id="glyph-0-7">
<path d="M 1.046875 0 L 1.046875 -10.308594 L 4.386719 -10.308594 C 5.652344 -10.308594 6.476562 -10.257812 6.863281 -10.152344 C 7.453125 -10 7.949219 -9.660156 8.347656 -9.144531 C 8.746094 -8.625 8.945312 -7.957031 8.945312 -7.136719 C 8.945312 -6.503906 8.828125 -5.972656 8.597656 -5.539062 C 8.371094 -5.109375 8.078125 -4.769531 7.722656 -4.523438 C 7.371094 -4.277344 7.011719 -4.117188 6.644531 -4.035156 C 6.148438 -3.9375 5.429688 -3.886719 4.484375 -3.886719 L 3.128906 -3.886719 L 3.128906 0 L 1.046875 0 M 3.128906 -8.5625 L 3.128906 -5.640625 L 4.269531 -5.640625 C 5.089844 -5.640625 5.636719 -5.691406 5.914062 -5.800781 C 6.191406 -5.910156 6.40625 -6.078125 6.5625 -6.308594 C 6.71875 -6.535156 6.800781 -6.804688 6.800781 -7.109375 C 6.800781 -7.484375 6.6875 -7.792969 6.46875 -8.035156 C 6.25 -8.28125 5.96875 -8.433594 5.632812 -8.492188 C 5.382812 -8.539062 4.882812 -8.5625 4.132812 -8.5625 Z M 3.128906 -8.5625 "/>
</g>
<g id="glyph-0-8">
<path d="M 0.335938 -2.128906 L 2.320312 -2.433594 C 2.40625 -2.046875 2.574219 -1.757812 2.832031 -1.558594 C 3.089844 -1.359375 3.453125 -1.257812 3.917969 -1.257812 C 4.425781 -1.257812 4.8125 -1.351562 5.070312 -1.539062 C 5.242188 -1.671875 5.328125 -1.847656 5.328125 -2.066406 C 5.328125 -2.21875 5.28125 -2.339844 5.1875 -2.441406 C 5.089844 -2.535156 4.871094 -2.621094 4.527344 -2.699219 C 2.933594 -3.050781 1.925781 -3.371094 1.496094 -3.664062 C 0.90625 -4.066406 0.613281 -4.625 0.613281 -5.34375 C 0.613281 -5.992188 0.867188 -6.535156 1.378906 -6.976562 C 1.890625 -7.414062 2.679688 -7.636719 3.753906 -7.636719 C 4.777344 -7.636719 5.535156 -7.46875 6.03125 -7.136719 C 6.53125 -6.804688 6.871094 -6.3125 7.058594 -5.660156 L 5.195312 -5.316406 C 5.117188 -5.605469 4.964844 -5.828125 4.742188 -5.984375 C 4.519531 -6.136719 4.203125 -6.214844 3.789062 -6.214844 C 3.269531 -6.214844 2.898438 -6.144531 2.671875 -5.996094 C 2.523438 -5.894531 2.445312 -5.761719 2.445312 -5.597656 C 2.445312 -5.457031 2.511719 -5.335938 2.644531 -5.238281 C 2.820312 -5.105469 3.4375 -4.921875 4.488281 -4.683594 C 5.542969 -4.445312 6.277344 -4.152344 6.695312 -3.804688 C 7.105469 -3.453125 7.3125 -2.960938 7.3125 -2.335938 C 7.3125 -1.648438 7.027344 -1.0625 6.453125 -0.570312 C 5.882812 -0.078125 5.035156 0.167969 3.917969 0.167969 C 2.898438 0.167969 2.09375 -0.0390625 1.5 -0.449219 C 0.910156 -0.863281 0.519531 -1.421875 0.335938 -2.128906 Z M 0.335938 -2.128906 "/>
</g>
<g id="glyph-0-9">
<path d="M 3.085938 0 L 0.078125 -7.46875 L 2.152344 -7.46875 L 3.558594 -3.65625 L 3.964844 -2.382812 C 4.074219 -2.707031 4.140625 -2.921875 4.167969 -3.023438 C 4.234375 -3.234375 4.304688 -3.445312 4.378906 -3.65625 L 5.800781 -7.46875 L 7.832031 -7.46875 L 4.867188 0 Z M 3.085938 0 "/>
</g>
<g id="glyph-0-10">
</g>
<g id="glyph-0-11">
<path d="M 5.949219 0 L 5.949219 -1.117188 C 5.675781 -0.71875 5.320312 -0.40625 4.875 -0.175781 C 4.433594 0.0546875 3.964844 0.167969 3.472656 0.167969 C 2.972656 0.167969 2.523438 0.0585938 2.125 -0.160156 C 1.726562 -0.382812 1.4375 -0.691406 1.257812 -1.089844 C 1.082031 -1.488281 0.992188 -2.039062 0.992188 -2.742188 L 0.992188 -7.46875 L 2.96875 -7.46875 L 2.96875 -4.035156 C 2.96875 -2.984375 3.003906 -2.34375 3.074219 -2.105469 C 3.148438 -1.867188 3.28125 -1.679688 3.472656 -1.542969 C 3.664062 -1.40625 3.910156 -1.335938 4.203125 -1.335938 C 4.542969 -1.335938 4.84375 -1.429688 5.113281 -1.613281 C 5.378906 -1.796875 5.5625 -2.027344 5.660156 -2.300781 C 5.757812 -2.578125 5.808594 -3.25 5.808594 -4.316406 L 5.808594 -7.46875 L 7.785156 -7.46875 L 7.785156 0 Z M 5.949219 0 "/>
</g>
<g id="glyph-1-0">
<path d="M 0 -0.925781 L -8.589844 -0.925781 L -8.589844 -4.167969 C -8.589844 -4.734375 -8.5625 -5.171875 -8.507812 -5.472656 C -8.4375 -5.894531 -8.304688 -6.246094 -8.105469 -6.535156 C -7.910156 -6.816406 -7.632812 -7.046875 -7.277344 -7.222656 C -6.921875 -7.394531 -6.53125 -7.484375 -6.105469 -7.484375 C -5.375 -7.484375 -4.757812 -7.25 -4.25 -6.785156 C -3.746094 -6.320312 -3.492188 -5.480469 -3.492188 -4.265625 L -3.492188 -2.0625 L 0 -2.0625 L 0 -0.925781 M -4.507812 -2.0625 L -4.507812 -4.28125 C -4.507812 -5.015625 -4.640625 -5.539062 -4.914062 -5.847656 C -5.1875 -6.15625 -5.574219 -6.3125 -6.070312 -6.3125 C -6.429688 -6.3125 -6.738281 -6.21875 -6.992188 -6.039062 C -7.25 -5.855469 -7.417969 -5.617188 -7.5 -5.320312 C -7.550781 -5.128906 -7.578125 -4.777344 -7.578125 -4.261719 L -7.578125 -2.0625 Z M -4.507812 -2.0625 "/>
</g>
<g id="glyph-1-1">
<path d="M -3.109375 -0.398438 C -4.261719 -0.398438 -5.117188 -0.71875 -5.671875 -1.359375 C -6.132812 -1.894531 -6.363281 -2.546875 -6.363281 -3.316406 C -6.363281 -4.171875 -6.082031 -4.871094 -5.523438 -5.414062 C -4.960938 -5.957031 -4.1875 -6.226562 -3.199219 -6.226562 C -2.398438 -6.226562 -1.769531 -6.109375 -1.308594 -5.867188 C -0.851562 -5.628906 -0.492188 -5.277344 -0.238281 -4.820312 C 0.0117188 -4.359375 0.140625 -3.859375 0.140625 -3.316406 C 0.140625 -2.445312 -0.140625 -1.742188 -0.695312 -1.203125 C -1.253906 -0.667969 -2.058594 -0.398438 -3.109375 -0.398438 M -3.109375 -1.484375 C -2.3125 -1.484375 -1.71875 -1.65625 -1.320312 -2.003906 C -0.925781 -2.351562 -0.726562 -2.789062 -0.726562 -3.316406 C -0.726562 -3.839844 -0.925781 -4.273438 -1.324219 -4.625 C -1.722656 -4.96875 -2.328125 -5.144531 -3.144531 -5.144531 C -3.914062 -5.144531 -4.5 -4.96875 -4.894531 -4.621094 C -5.292969 -4.269531 -5.492188 -3.835938 -5.492188 -3.316406 C -5.492188 -2.789062 -5.292969 -2.351562 -4.898438 -2.003906 C -4.503906 -1.65625 -3.90625 -1.484375 -3.109375 -1.484375 Z M -3.109375 -1.484375 "/>
</g>
<g id="glyph-1-2">
<path d="M 0 -0.765625 L -8.589844 -0.769531 L -8.589844 -1.824219 L 0 -1.820312 Z M 0 -0.765625 "/>
</g>
<g id="glyph-1-3">
<path d="M -2.003906 -5.050781 L -1.867188 -6.140625 C -1.230469 -5.96875 -0.738281 -5.648438 -0.386719 -5.1875 C -0.0351562 -4.71875 0.140625 -4.125 0.140625 -3.40625 C 0.140625 -2.492188 -0.140625 -1.773438 -0.699219 -1.238281 C -1.261719 -0.707031 -2.046875 -0.441406 -3.058594 -0.441406 C -4.105469 -0.441406 -4.917969 -0.710938 -5.496094 -1.25 C -6.074219 -1.789062 -6.363281 -2.484375 -6.363281 -3.347656 C -6.363281 -4.179688 -6.078125 -4.859375 -5.515625 -5.382812 C -4.945312 -5.914062 -4.148438 -6.175781 -3.121094 -6.175781 C -3.058594 -6.175781 -2.964844 -6.171875 -2.839844 -6.171875 L -2.84375 -1.53125 C -2.15625 -1.566406 -1.632812 -1.761719 -1.269531 -2.109375 C -0.90625 -2.457031 -0.726562 -2.890625 -0.726562 -3.410156 C -0.726562 -3.796875 -0.828125 -4.125 -1.03125 -4.398438 C -1.234375 -4.671875 -1.558594 -4.890625 -2.003906 -5.050781 M -3.710938 -1.589844 L -3.707031 -5.0625 C -4.230469 -5.015625 -4.625 -4.882812 -4.886719 -4.664062 C -5.292969 -4.328125 -5.496094 -3.890625 -5.496094 -3.359375 C -5.496094 -2.871094 -5.332031 -2.464844 -5.007812 -2.136719 C -4.683594 -1.804688 -4.25 -1.625 -3.710938 -1.589844 Z M -3.710938 -1.589844 "/>
</g>
<g id="glyph-1-4">
<path d="M 0 -4.828125 L -0.785156 -4.828125 C -0.167969 -4.433594 0.140625 -3.851562 0.140625 -3.085938 C 0.140625 -2.589844 0.00390625 -2.136719 -0.269531 -1.71875 C -0.542969 -1.304688 -0.925781 -0.980469 -1.414062 -0.753906 C -1.90625 -0.523438 -2.46875 -0.410156 -3.105469 -0.410156 C -3.726562 -0.410156 -4.289062 -0.511719 -4.796875 -0.722656 C -5.300781 -0.925781 -5.6875 -1.238281 -5.960938 -1.652344 C -6.226562 -2.066406 -6.363281 -2.527344 -6.363281 -3.042969 C -6.363281 -3.417969 -6.285156 -3.75 -6.125 -4.042969 C -5.96875 -4.335938 -5.761719 -4.574219 -5.507812 -4.757812 L -8.589844 -4.757812 L -8.589844 -5.808594 L 0 -5.804688 L 0 -4.828125 M -3.105469 -1.496094 C -2.308594 -1.492188 -1.710938 -1.660156 -1.316406 -2 C -0.921875 -2.332031 -0.726562 -2.730469 -0.726562 -3.1875 C -0.726562 -3.648438 -0.914062 -4.039062 -1.292969 -4.363281 C -1.667969 -4.683594 -2.242188 -4.84375 -3.015625 -4.84375 C -3.867188 -4.84375 -4.492188 -4.679688 -4.890625 -4.351562 C -5.289062 -4.023438 -5.492188 -3.621094 -5.492188 -3.140625 C -5.492188 -2.671875 -5.296875 -2.28125 -4.914062 -1.964844 C -4.53125 -1.652344 -3.929688 -1.492188 -3.105469 -1.496094 Z M -3.105469 -1.496094 "/>
</g>
<g id="glyph-1-5">
</g>
<g id="glyph-1-6">
<path d="M 0 -0.78125 L -6.222656 -0.78125 L -6.222656 -1.730469 L -5.28125 -1.730469 C -5.71875 -1.96875 -6.011719 -2.195312 -6.152344 -2.398438 C -6.292969 -2.605469 -6.363281 -2.828125 -6.363281 -3.078125 C -6.363281 -3.429688 -6.25 -3.792969 -6.023438 -4.160156 L -5.046875 -3.796875 C -5.195312 -3.539062 -5.273438 -3.28125 -5.273438 -3.023438 C -5.273438 -2.792969 -5.203125 -2.585938 -5.066406 -2.402344 C -4.925781 -2.21875 -4.734375 -2.085938 -4.488281 -2.011719 C -4.113281 -1.894531 -3.703125 -1.835938 -3.257812 -1.835938 L 0 -1.835938 Z M 0 -0.78125 "/>
</g>
<g id="glyph-1-7">
<path d="M 0.515625 -0.597656 L 0.667969 -1.625 C 0.984375 -1.664062 1.214844 -1.785156 1.359375 -1.980469 C 1.554688 -2.242188 1.652344 -2.597656 1.652344 -3.054688 C 1.652344 -3.539062 1.554688 -3.917969 1.359375 -4.183594 C 1.164062 -4.449219 0.890625 -4.628906 0.539062 -4.722656 C 0.324219 -4.777344 -0.128906 -4.800781 -0.8125 -4.796875 C -0.273438 -4.335938 0 -3.761719 0 -3.078125 C 0 -2.21875 -0.308594 -1.558594 -0.925781 -1.089844 C -1.542969 -0.621094 -2.28125 -0.386719 -3.148438 -0.386719 C -3.738281 -0.386719 -4.289062 -0.492188 -4.789062 -0.710938 C -5.292969 -0.921875 -5.679688 -1.234375 -5.953125 -1.644531 C -6.226562 -2.050781 -6.363281 -2.53125 -6.363281 -3.082031 C -6.363281 -3.816406 -6.066406 -4.421875 -5.472656 -4.898438 L -6.222656 -4.898438 L -6.222656 -5.871094 L -0.84375 -5.871094 C 0.125 -5.871094 0.8125 -5.773438 1.214844 -5.574219 C 1.621094 -5.378906 1.941406 -5.066406 2.175781 -4.636719 C 2.410156 -4.210938 2.527344 -3.683594 2.523438 -3.058594 C 2.523438 -2.316406 2.359375 -1.714844 2.023438 -1.257812 C 1.691406 -0.800781 1.1875 -0.582031 0.515625 -0.597656 M -3.222656 -1.472656 C -2.40625 -1.472656 -1.8125 -1.632812 -1.433594 -1.957031 C -1.058594 -2.28125 -0.871094 -2.6875 -0.871094 -3.175781 C -0.871094 -3.660156 -1.058594 -4.066406 -1.433594 -4.394531 C -1.804688 -4.722656 -2.390625 -4.886719 -3.1875 -4.886719 C -3.949219 -4.886719 -4.523438 -4.71875 -4.910156 -4.378906 C -5.296875 -4.042969 -5.492188 -3.632812 -5.492188 -3.160156 C -5.492188 -2.691406 -5.300781 -2.292969 -4.917969 -1.964844 C -4.539062 -1.636719 -3.972656 -1.472656 -3.222656 -1.472656 Z M -3.222656 -1.472656 "/>
</g>
<g id="glyph-1-8">
<path d="M -7.375 -0.796875 L -8.589844 -0.796875 L -8.589844 -1.851562 L -7.375 -1.851562 L -7.375 -0.796875 M 0 -0.796875 L -6.222656 -0.796875 L -6.222656 -1.851562 L 0 -1.851562 Z M 0 -0.796875 "/>
</g>
<g id="glyph-1-9">
<path d="M -1.859375 -0.371094 L -2.023438 -1.414062 C -1.601562 -1.46875 -1.28125 -1.632812 -1.058594 -1.902344 C -0.835938 -2.167969 -0.726562 -2.542969 -0.726562 -3.023438 C -0.726562 -3.507812 -0.824219 -3.867188 -1.023438 -4.101562 C -1.21875 -4.335938 -1.449219 -4.453125 -1.714844 -4.453125 C -1.953125 -4.453125 -2.140625 -4.347656 -2.277344 -4.140625 C -2.371094 -3.996094 -2.492188 -3.640625 -2.636719 -3.0625 C -2.832031 -2.289062 -3 -1.753906 -3.144531 -1.457031 C -3.285156 -1.15625 -3.484375 -0.929688 -3.734375 -0.777344 C -3.988281 -0.621094 -4.265625 -0.546875 -4.570312 -0.546875 C -4.847656 -0.546875 -5.105469 -0.609375 -5.339844 -0.734375 C -5.578125 -0.863281 -5.773438 -1.035156 -5.929688 -1.253906 C -6.050781 -1.417969 -6.152344 -1.640625 -6.238281 -1.925781 C -6.320312 -2.207031 -6.363281 -2.511719 -6.363281 -2.835938 C -6.363281 -3.324219 -6.292969 -3.753906 -6.152344 -4.121094 C -6.011719 -4.492188 -5.820312 -4.761719 -5.582031 -4.9375 C -5.339844 -5.113281 -5.019531 -5.234375 -4.617188 -5.304688 L -4.476562 -4.273438 C -4.796875 -4.226562 -5.046875 -4.089844 -5.226562 -3.863281 C -5.40625 -3.640625 -5.496094 -3.324219 -5.496094 -2.914062 C -5.496094 -2.425781 -5.414062 -2.082031 -5.257812 -1.875 C -5.09375 -1.667969 -4.90625 -1.566406 -4.695312 -1.566406 C -4.554688 -1.566406 -4.433594 -1.605469 -4.324219 -1.695312 C -4.210938 -1.777344 -4.117188 -1.914062 -4.042969 -2.097656 C -4.003906 -2.203125 -3.914062 -2.515625 -3.773438 -3.03125 C -3.574219 -3.773438 -3.410156 -4.296875 -3.285156 -4.589844 C -3.15625 -4.886719 -2.972656 -5.117188 -2.730469 -5.285156 C -2.488281 -5.453125 -2.1875 -5.535156 -1.828125 -5.539062 C -1.476562 -5.535156 -1.144531 -5.433594 -0.835938 -5.230469 C -0.523438 -5.023438 -0.285156 -4.726562 -0.113281 -4.34375 C 0.0546875 -3.953125 0.140625 -3.515625 0.140625 -3.03125 C 0.140625 -2.21875 -0.0273438 -1.605469 -0.363281 -1.179688 C -0.699219 -0.757812 -1.199219 -0.488281 -1.859375 -0.371094 Z M -1.859375 -0.371094 "/>
</g>
<g id="glyph-1-10">
<path d="M -0.941406 -3.09375 L -0.0117188 -3.246094 C 0.0507812 -2.949219 0.0820312 -2.683594 0.0820312 -2.449219 C 0.0820312 -2.066406 0.0195312 -1.769531 -0.0976562 -1.558594 C -0.21875 -1.347656 -0.378906 -1.199219 -0.578125 -1.113281 C -0.773438 -1.027344 -1.1875 -0.984375 -1.820312 -0.984375 L -5.402344 -0.984375 L -5.402344 -0.210938 L -6.222656 -0.210938 L -6.222656 -0.984375 L -7.765625 -0.984375 L -8.398438 -2.035156 L -6.222656 -2.035156 L -6.222656 -3.09375 L -5.402344 -3.09375 L -5.402344 -2.035156 L -1.761719 -2.03125 C -1.460938 -2.03125 -1.269531 -2.050781 -1.183594 -2.089844 C -1.097656 -2.125 -1.027344 -2.1875 -0.976562 -2.269531 C -0.925781 -2.355469 -0.902344 -2.472656 -0.902344 -2.632812 C -0.902344 -2.75 -0.914062 -2.902344 -0.941406 -3.09375 Z M -0.941406 -3.09375 "/>
</g>
<g id="glyph-1-11">
<path d="M 0 -0.789062 L -6.222656 -0.792969 L -6.222656 -1.734375 L -5.351562 -1.734375 C -5.65625 -1.929688 -5.898438 -2.1875 -6.085938 -2.515625 C -6.269531 -2.835938 -6.363281 -3.207031 -6.363281 -3.621094 C -6.363281 -4.082031 -6.265625 -4.460938 -6.078125 -4.753906 C -5.882812 -5.050781 -5.617188 -5.257812 -5.273438 -5.378906 C -6 -5.871094 -6.363281 -6.511719 -6.363281 -7.300781 C -6.363281 -7.917969 -6.191406 -8.390625 -5.851562 -8.726562 C -5.507812 -9.054688 -4.980469 -9.222656 -4.269531 -9.222656 L 0 -9.222656 L 0 -8.171875 L -3.917969 -8.171875 C -4.339844 -8.171875 -4.644531 -8.140625 -4.832031 -8.070312 C -5.015625 -8.003906 -5.164062 -7.878906 -5.277344 -7.699219 C -5.390625 -7.519531 -5.449219 -7.308594 -5.449219 -7.066406 C -5.449219 -6.628906 -5.304688 -6.265625 -5.011719 -5.976562 C -4.722656 -5.6875 -4.253906 -5.542969 -3.613281 -5.542969 L 0 -5.542969 L 0 -4.488281 L -4.042969 -4.488281 C -4.511719 -4.488281 -4.863281 -4.402344 -5.097656 -4.230469 C -5.332031 -4.058594 -5.449219 -3.777344 -5.449219 -3.386719 C -5.449219 -3.089844 -5.371094 -2.816406 -5.214844 -2.5625 C -5.058594 -2.3125 -4.828125 -2.128906 -4.53125 -2.015625 C -4.226562 -1.902344 -3.792969 -1.847656 -3.226562 -1.847656 L 0 -1.84375 Z M 0 -0.789062 "/>
</g>
<g id="glyph-1-12">
<path d="M -2.578125 -0.382812 L -3.640625 -0.382812 L -3.640625 -3.621094 L -2.578125 -3.621094 Z M -2.578125 -0.382812 "/>
</g>
<g id="glyph-1-13">
<path d="M -2.277344 -4.851562 L -2.144531 -5.890625 C -1.429688 -5.773438 -0.871094 -5.484375 -0.464844 -5.019531 C -0.0625 -4.550781 0.140625 -3.976562 0.140625 -3.296875 C 0.140625 -2.445312 -0.136719 -1.761719 -0.695312 -1.246094 C -1.25 -0.726562 -2.046875 -0.46875 -3.085938 -0.46875 C -3.757812 -0.46875 -4.347656 -0.582031 -4.851562 -0.804688 C -5.355469 -1.027344 -5.734375 -1.363281 -5.984375 -1.820312 C -6.238281 -2.273438 -6.363281 -2.769531 -6.363281 -3.304688 C -6.363281 -3.980469 -6.191406 -4.53125 -5.851562 -4.960938 C -5.507812 -5.390625 -5.023438 -5.667969 -4.394531 -5.789062 L -4.234375 -4.765625 C -4.652344 -4.664062 -4.96875 -4.492188 -5.179688 -4.246094 C -5.390625 -3.996094 -5.496094 -3.699219 -5.496094 -3.347656 C -5.496094 -2.8125 -5.304688 -2.382812 -4.925781 -2.050781 C -4.542969 -1.71875 -3.941406 -1.554688 -3.117188 -1.554688 C -2.28125 -1.554688 -1.671875 -1.710938 -1.292969 -2.03125 C -0.917969 -2.351562 -0.726562 -2.769531 -0.726562 -3.289062 C -0.726562 -3.699219 -0.851562 -4.046875 -1.105469 -4.324219 C -1.359375 -4.601562 -1.75 -4.777344 -2.277344 -4.851562 Z M -2.277344 -4.851562 "/>
</g>
<g id="glyph-1-14">
<path d="M -0.765625 -4.851562 C -0.433594 -4.460938 -0.199219 -4.085938 -0.0625 -3.722656 C 0.0703125 -3.363281 0.140625 -2.972656 0.140625 -2.5625 C 0.140625 -1.875 -0.0273438 -1.351562 -0.359375 -0.984375 C -0.695312 -0.617188 -1.121094 -0.433594 -1.640625 -0.433594 C -1.945312 -0.433594 -2.222656 -0.503906 -2.476562 -0.640625 C -2.726562 -0.78125 -2.929688 -0.960938 -3.082031 -1.1875 C -3.234375 -1.410156 -3.347656 -1.664062 -3.429688 -1.945312 C -3.480469 -2.152344 -3.535156 -2.464844 -3.585938 -2.882812 C -3.6875 -3.734375 -3.808594 -4.359375 -3.949219 -4.765625 C -4.09375 -4.765625 -4.183594 -4.769531 -4.226562 -4.769531 C -4.652344 -4.769531 -4.957031 -4.671875 -5.132812 -4.46875 C -5.371094 -4.203125 -5.492188 -3.800781 -5.492188 -3.269531 C -5.492188 -2.773438 -5.402344 -2.40625 -5.230469 -2.171875 C -5.054688 -1.933594 -4.746094 -1.757812 -4.304688 -1.648438 L -4.445312 -0.617188 C -4.886719 -0.707031 -5.246094 -0.863281 -5.515625 -1.078125 C -5.789062 -1.292969 -5.996094 -1.601562 -6.144531 -2.011719 C -6.289062 -2.414062 -6.363281 -2.886719 -6.363281 -3.421875 C -6.363281 -3.953125 -6.300781 -4.382812 -6.175781 -4.71875 C -6.050781 -5.046875 -5.894531 -5.292969 -5.703125 -5.449219 C -5.515625 -5.605469 -5.273438 -5.714844 -4.984375 -5.777344 C -4.804688 -5.8125 -4.484375 -5.828125 -4.015625 -5.828125 L -2.605469 -5.828125 C -1.628906 -5.828125 -1.007812 -5.851562 -0.746094 -5.898438 C -0.488281 -5.941406 -0.238281 -6.03125 0 -6.164062 L 0 -5.0625 C -0.21875 -4.953125 -0.472656 -4.882812 -0.765625 -4.851562 M -3.121094 -4.765625 C -2.964844 -4.378906 -2.832031 -3.804688 -2.726562 -3.039062 C -2.660156 -2.605469 -2.589844 -2.300781 -2.515625 -2.121094 C -2.433594 -1.941406 -2.320312 -1.800781 -2.171875 -1.707031 C -2.019531 -1.605469 -1.851562 -1.558594 -1.671875 -1.558594 C -1.386719 -1.558594 -1.152344 -1.664062 -0.964844 -1.878906 C -0.777344 -2.089844 -0.683594 -2.402344 -0.683594 -2.8125 C -0.683594 -3.21875 -0.773438 -3.578125 -0.953125 -3.898438 C -1.128906 -4.210938 -1.371094 -4.445312 -1.679688 -4.59375 C -1.917969 -4.707031 -2.269531 -4.761719 -2.734375 -4.765625 Z M -3.121094 -4.765625 "/>
</g>
<g id="glyph-1-15">
<path d="M 0 -1.042969 L -5.402344 -1.042969 L -5.402344 -0.113281 L -6.222656 -0.113281 L -6.222656 -1.042969 L -6.882812 -1.042969 C -7.300781 -1.042969 -7.613281 -1.078125 -7.816406 -1.15625 C -8.089844 -1.253906 -8.3125 -1.433594 -8.480469 -1.691406 C -8.652344 -1.945312 -8.734375 -2.304688 -8.734375 -2.765625 C -8.734375 -3.0625 -8.703125 -3.390625 -8.632812 -3.75 L -7.710938 -3.59375 C -7.75 -3.371094 -7.769531 -3.164062 -7.769531 -2.972656 C -7.769531 -2.648438 -7.699219 -2.421875 -7.5625 -2.292969 C -7.425781 -2.15625 -7.171875 -2.09375 -6.796875 -2.09375 L -6.222656 -2.09375 L -6.222656 -3.304688 L -5.402344 -3.304688 L -5.402344 -2.09375 L 0 -2.09375 Z M 0 -1.042969 "/>
</g>
<g id="glyph-1-16">
<path d="M 0 -0.789062 L -6.222656 -0.792969 L -6.222656 -1.742188 L -5.335938 -1.742188 C -6.019531 -2.195312 -6.363281 -2.855469 -6.363281 -3.722656 C -6.363281 -4.09375 -6.296875 -4.441406 -6.160156 -4.753906 C -6.027344 -5.070312 -5.847656 -5.304688 -5.632812 -5.460938 C -5.410156 -5.617188 -5.152344 -5.726562 -4.851562 -5.789062 C -4.65625 -5.828125 -4.3125 -5.847656 -3.824219 -5.847656 L 0 -5.847656 L 0 -4.792969 L -3.785156 -4.792969 C -4.214844 -4.792969 -4.535156 -4.75 -4.75 -4.671875 C -4.960938 -4.585938 -5.132812 -4.441406 -5.257812 -4.234375 C -5.386719 -4.023438 -5.449219 -3.78125 -5.449219 -3.5 C -5.449219 -3.046875 -5.304688 -2.660156 -5.023438 -2.335938 C -4.734375 -2.007812 -4.195312 -1.847656 -3.398438 -1.847656 L 0 -1.84375 Z M 0 -0.789062 "/>
</g>
<g id="glyph-1-17">
<path d="M 0 -4.46875 L 0 -3.414062 L -6.71875 -3.417969 C -6.476562 -3.160156 -6.234375 -2.828125 -5.992188 -2.417969 C -5.75 -2.003906 -5.570312 -1.636719 -5.449219 -1.308594 L -6.46875 -1.308594 C -6.746094 -1.894531 -7.082031 -2.410156 -7.476562 -2.855469 C -7.871094 -3.292969 -8.253906 -3.605469 -8.625 -3.792969 L -8.625 -4.472656 Z M 0 -4.46875 "/>
</g>
<g id="glyph-1-18">
<path d="M 0 -1.089844 L -1.203125 -1.089844 L -1.199219 -2.289062 L 0 -2.289062 Z M 0 -1.089844 "/>
</g>
<g id="glyph-1-19">
<path d="M -4.234375 -0.5 C -5.25 -0.5 -6.070312 -0.601562 -6.6875 -0.8125 C -7.308594 -1.019531 -7.785156 -1.332031 -8.121094 -1.742188 C -8.457031 -2.15625 -8.625 -2.671875 -8.625 -3.300781 C -8.625 -3.757812 -8.53125 -4.164062 -8.347656 -4.511719 C -8.160156 -4.859375 -7.894531 -5.144531 -7.542969 -5.375 C -7.195312 -5.597656 -6.769531 -5.777344 -6.265625 -5.90625 C -5.765625 -6.035156 -5.085938 -6.101562 -4.234375 -6.101562 C -3.226562 -6.101562 -2.414062 -5.996094 -1.796875 -5.789062 C -1.175781 -5.582031 -0.699219 -5.273438 -0.359375 -4.859375 C -0.0234375 -4.449219 0.148438 -3.925781 0.148438 -3.296875 C 0.148438 -2.46875 -0.152344 -1.820312 -0.742188 -1.347656 C -1.460938 -0.78125 -2.621094 -0.5 -4.234375 -0.5 M -4.234375 -1.582031 C -2.824219 -1.582031 -1.886719 -1.746094 -1.421875 -2.078125 C -0.953125 -2.40625 -0.71875 -2.8125 -0.71875 -3.296875 C -0.71875 -3.78125 -0.953125 -4.191406 -1.421875 -4.519531 C -1.890625 -4.851562 -2.828125 -5.015625 -4.234375 -5.015625 C -5.648438 -5.015625 -6.589844 -4.851562 -7.054688 -4.519531 C -7.519531 -4.191406 -7.75 -3.78125 -7.75 -3.289062 C -7.75 -2.800781 -7.546875 -2.414062 -7.136719 -2.128906 C -6.613281 -1.765625 -5.644531 -1.582031 -4.234375 -1.582031 Z M -4.234375 -1.582031 "/>
</g>
<g id="glyph-1-20">
<path d="M -2.25 -0.5 L -2.34375 -1.605469 C -1.804688 -1.6875 -1.398438 -1.878906 -1.128906 -2.175781 C -0.855469 -2.476562 -0.71875 -2.835938 -0.71875 -3.257812 C -0.71875 -3.765625 -0.910156 -4.195312 -1.292969 -4.546875 C -1.675781 -4.898438 -2.183594 -5.074219 -2.816406 -5.074219 C -3.417969 -5.074219 -3.894531 -4.90625 -4.242188 -4.566406 C -4.589844 -4.230469 -4.761719 -3.785156 -4.765625 -3.242188 C -4.761719 -2.902344 -4.6875 -2.59375 -4.53125 -2.320312 C -4.378906 -2.046875 -4.179688 -1.832031 -3.929688 -1.675781 L -4.0625 -0.6875 L -8.472656 -1.519531 L -8.472656 -5.789062 L -7.464844 -5.789062 L -7.464844 -2.363281 L -5.15625 -1.898438 C -5.515625 -2.414062 -5.695312 -2.953125 -5.695312 -3.523438 C -5.695312 -4.273438 -5.433594 -4.90625 -4.914062 -5.421875 C -4.394531 -5.9375 -3.726562 -6.195312 -2.910156 -6.195312 C -2.132812 -6.195312 -1.460938 -5.964844 -0.894531 -5.515625 C -0.203125 -4.960938 0.148438 -4.210938 0.148438 -3.257812 C 0.148438 -2.476562 -0.0742188 -1.839844 -0.507812 -1.34375 C -0.945312 -0.851562 -1.527344 -0.570312 -2.25 -0.5 Z M -2.25 -0.5 "/>
</g>
<g id="glyph-2-0">
<path d="M 0.714844 -0.5 L -3.128906 -5.988281 L -2.402344 -6.496094 L 1.441406 -1.007812 Z M 0.714844 -0.5 "/>
</g>
<g id="glyph-2-1">
<path d="M 0.503906 -0.355469 L -2.277344 -4.328125 L -1.675781 -4.75 L -1.285156 -4.195312 C -1.296875 -4.476562 -1.242188 -4.75 -1.117188 -5.011719 C -0.992188 -5.277344 -0.796875 -5.5 -0.535156 -5.6875 C -0.238281 -5.890625 0.046875 -6 0.320312 -6.007812 C 0.59375 -6.019531 0.847656 -5.941406 1.078125 -5.777344 C 1.066406 -6.460938 1.3125 -6.980469 1.816406 -7.332031 C 2.210938 -7.609375 2.59375 -7.710938 2.957031 -7.640625 C 3.320312 -7.570312 3.664062 -7.308594 3.980469 -6.855469 L 5.894531 -4.125 L 5.222656 -3.65625 L 3.46875 -6.160156 C 3.28125 -6.429688 3.121094 -6.609375 2.996094 -6.699219 C 2.867188 -6.785156 2.722656 -6.824219 2.558594 -6.816406 C 2.390625 -6.808594 2.230469 -6.75 2.078125 -6.644531 C 1.796875 -6.449219 1.628906 -6.191406 1.574219 -5.875 C 1.523438 -5.5625 1.636719 -5.199219 1.925781 -4.789062 L 3.542969 -2.480469 L 2.867188 -2.007812 L 1.058594 -4.589844 C 0.847656 -4.890625 0.636719 -5.078125 0.421875 -5.148438 C 0.207031 -5.222656 -0.0234375 -5.171875 -0.273438 -4.996094 C -0.464844 -4.863281 -0.605469 -4.691406 -0.695312 -4.480469 C -0.785156 -4.265625 -0.800781 -4.039062 -0.738281 -3.796875 C -0.675781 -3.554688 -0.519531 -3.25 -0.265625 -2.886719 L 1.179688 -0.824219 Z M 0.503906 -0.355469 "/>
</g>
<g id="glyph-2-2">
<path d="M 2.332031 -3.539062 L 3.085938 -3.941406 C 3.261719 -3.457031 3.28125 -3 3.140625 -2.566406 C 3 -2.132812 2.699219 -1.757812 2.238281 -1.433594 C 1.65625 -1.027344 1.070312 -0.882812 0.480469 -1 C -0.113281 -1.121094 -0.636719 -1.503906 -1.085938 -2.152344 C -1.554688 -2.820312 -1.746094 -3.460938 -1.660156 -4.070312 C -1.574219 -4.679688 -1.257812 -5.179688 -0.710938 -5.5625 C -0.175781 -5.933594 0.382812 -6.058594 0.972656 -5.933594 C 1.5625 -5.804688 2.089844 -5.414062 2.546875 -4.757812 C 2.578125 -4.71875 2.617188 -4.65625 2.671875 -4.574219 L -0.292969 -2.5 C 0.0351562 -2.082031 0.394531 -1.832031 0.777344 -1.757812 C 1.164062 -1.679688 1.523438 -1.757812 1.855469 -1.988281 C 2.101562 -2.164062 2.265625 -2.375 2.351562 -2.628906 C 2.433594 -2.878906 2.425781 -3.183594 2.332031 -3.539062 M -0.644531 -3.082031 L 1.574219 -4.632812 C 1.3125 -4.949219 1.050781 -5.140625 0.792969 -5.207031 C 0.398438 -5.316406 0.0273438 -5.253906 -0.3125 -5.015625 C -0.625 -4.796875 -0.8125 -4.511719 -0.875 -4.15625 C -0.941406 -3.800781 -0.867188 -3.441406 -0.644531 -3.082031 Z M -0.644531 -3.082031 "/>
</g>
<g id="glyph-2-3">
<path d="M 3.085938 -2.160156 L 2.734375 -2.660156 C 2.757812 -2.089844 2.523438 -1.632812 2.035156 -1.292969 C 1.71875 -1.070312 1.367188 -0.953125 0.976562 -0.941406 C 0.589844 -0.929688 0.214844 -1.03125 -0.152344 -1.242188 C -0.515625 -1.453125 -0.84375 -1.761719 -1.128906 -2.167969 C -1.40625 -2.566406 -1.589844 -2.972656 -1.683594 -3.386719 C -1.777344 -3.800781 -1.753906 -4.1875 -1.609375 -4.546875 C -1.464844 -4.902344 -1.230469 -5.199219 -0.902344 -5.425781 C -0.664062 -5.59375 -0.414062 -5.691406 -0.15625 -5.722656 C 0.101562 -5.753906 0.34375 -5.726562 0.574219 -5.648438 L -0.804688 -7.617188 L -0.132812 -8.085938 L 3.710938 -2.597656 L 3.085938 -2.160156 M -0.433594 -2.652344 C -0.078125 -2.144531 0.296875 -1.839844 0.6875 -1.734375 C 1.078125 -1.632812 1.417969 -1.6875 1.710938 -1.890625 C 2.007812 -2.097656 2.171875 -2.390625 2.210938 -2.777344 C 2.246094 -3.164062 2.09375 -3.601562 1.746094 -4.097656 C 1.363281 -4.640625 0.980469 -4.964844 0.59375 -5.074219 C 0.203125 -5.179688 -0.144531 -5.128906 -0.449219 -4.914062 C -0.75 -4.703125 -0.914062 -4.40625 -0.941406 -4.019531 C -0.972656 -3.636719 -0.804688 -3.179688 -0.433594 -2.652344 Z M -0.433594 -2.652344 "/>
</g>
<g id="glyph-2-4">
<path d="M -2.792969 -5.070312 L -3.332031 -5.84375 L -2.660156 -6.316406 L -2.117188 -5.542969 L -2.792969 -5.070312 M 0.507812 -0.355469 L -2.273438 -4.332031 L -1.601562 -4.804688 L 1.183594 -0.828125 Z M 0.507812 -0.355469 "/>
</g>
<g id="glyph-2-5">
<path d="M 2.757812 -2.660156 C 2.65625 -2.273438 2.519531 -1.957031 2.351562 -1.707031 C 2.179688 -1.457031 1.964844 -1.242188 1.699219 -1.054688 C 1.261719 -0.75 0.851562 -0.621094 0.46875 -0.671875 C 0.0820312 -0.71875 -0.222656 -0.910156 -0.457031 -1.242188 C -0.59375 -1.4375 -0.671875 -1.644531 -0.699219 -1.867188 C -0.722656 -2.09375 -0.695312 -2.300781 -0.621094 -2.5 C -0.546875 -2.699219 -0.433594 -2.882812 -0.289062 -3.058594 C -0.183594 -3.1875 -0.0078125 -3.363281 0.238281 -3.582031 C 0.734375 -4.027344 1.082031 -4.382812 1.277344 -4.65625 C 1.214844 -4.75 1.175781 -4.808594 1.15625 -4.832031 C 0.964844 -5.109375 0.765625 -5.257812 0.558594 -5.28125 C 0.28125 -5.3125 -0.0273438 -5.207031 -0.367188 -4.96875 C -0.683594 -4.75 -0.878906 -4.53125 -0.953125 -4.3125 C -1.027344 -4.097656 -1 -3.820312 -0.875 -3.488281 L -1.597656 -3.117188 C -1.734375 -3.441406 -1.796875 -3.738281 -1.777344 -4.007812 C -1.761719 -4.277344 -1.660156 -4.550781 -1.464844 -4.824219 C -1.269531 -5.101562 -1.003906 -5.355469 -0.660156 -5.597656 C -0.320312 -5.835938 -0.015625 -5.988281 0.25 -6.054688 C 0.519531 -6.125 0.746094 -6.132812 0.929688 -6.082031 C 1.113281 -6.03125 1.292969 -5.925781 1.460938 -5.769531 C 1.5625 -5.671875 1.71875 -5.472656 1.929688 -5.171875 L 2.558594 -4.273438 C 2.996094 -3.648438 3.289062 -3.261719 3.433594 -3.117188 C 3.578125 -2.96875 3.746094 -2.851562 3.9375 -2.757812 L 3.234375 -2.265625 C 3.066406 -2.355469 2.90625 -2.488281 2.757812 -2.660156 M 1.644531 -4.125 C 1.472656 -3.855469 1.164062 -3.515625 0.722656 -3.101562 C 0.476562 -2.867188 0.308594 -2.683594 0.230469 -2.554688 C 0.152344 -2.425781 0.113281 -2.289062 0.117188 -2.148438 C 0.125 -2.011719 0.167969 -1.882812 0.25 -1.765625 C 0.375 -1.585938 0.546875 -1.484375 0.765625 -1.457031 C 0.988281 -1.433594 1.226562 -1.511719 1.492188 -1.695312 C 1.75 -1.878906 1.941406 -2.097656 2.0625 -2.351562 C 2.1875 -2.605469 2.226562 -2.867188 2.183594 -3.128906 C 2.148438 -3.332031 2.027344 -3.582031 1.820312 -3.878906 Z M 1.644531 -4.125 "/>
</g>
<g id="glyph-2-6">
<path d="M 1.554688 -1.988281 L 2.070312 -1.460938 C 1.90625 -1.285156 1.75 -1.148438 1.601562 -1.042969 C 1.355469 -0.871094 1.140625 -0.777344 0.953125 -0.761719 C 0.761719 -0.742188 0.597656 -0.777344 0.453125 -0.867188 C 0.308594 -0.953125 0.0976562 -1.199219 -0.1875 -1.605469 L -1.789062 -3.890625 L -2.28125 -3.546875 L -2.648438 -4.070312 L -2.15625 -4.417969 L -2.84375 -5.402344 L -2.457031 -6.273438 L -1.484375 -4.886719 L -0.808594 -5.359375 L -0.441406 -4.835938 L -1.117188 -4.363281 L 0.511719 -2.035156 C 0.644531 -1.84375 0.742188 -1.730469 0.804688 -1.691406 C 0.867188 -1.652344 0.9375 -1.636719 1.011719 -1.640625 C 1.089844 -1.644531 1.175781 -1.683594 1.277344 -1.753906 C 1.351562 -1.804688 1.445312 -1.882812 1.554688 -1.988281 Z M 1.554688 -1.988281 "/>
</g>
<g id="glyph-2-7">
</g>
<g id="glyph-2-8">
<path d="M 1.574219 1.167969 L -2.277344 -4.328125 L -1.664062 -4.757812 L -1.304688 -4.242188 C -1.300781 -4.546875 -1.242188 -4.8125 -1.132812 -5.042969 C -1.019531 -5.269531 -0.832031 -5.476562 -0.574219 -5.65625 C -0.234375 -5.894531 0.125 -6.015625 0.507812 -6.023438 C 0.890625 -6.03125 1.257812 -5.921875 1.613281 -5.695312 C 1.96875 -5.46875 2.277344 -5.167969 2.542969 -4.789062 C 2.828125 -4.382812 3.011719 -3.964844 3.09375 -3.535156 C 3.175781 -3.109375 3.140625 -2.710938 2.984375 -2.34375 C 2.824219 -1.972656 2.59375 -1.683594 2.285156 -1.46875 C 2.0625 -1.308594 1.828125 -1.214844 1.582031 -1.1875 C 1.335938 -1.15625 1.105469 -1.171875 0.890625 -1.238281 L 2.246094 0.699219 L 1.574219 1.167969 M -0.261719 -2.746094 C 0.0976562 -2.234375 0.464844 -1.929688 0.84375 -1.828125 C 1.222656 -1.730469 1.558594 -1.785156 1.855469 -1.988281 C 2.152344 -2.199219 2.320312 -2.503906 2.355469 -2.910156 C 2.394531 -3.3125 2.226562 -3.777344 1.851562 -4.308594 C 1.496094 -4.816406 1.128906 -5.125 0.742188 -5.230469 C 0.359375 -5.335938 0.0195312 -5.289062 -0.269531 -5.085938 C -0.554688 -4.882812 -0.714844 -4.570312 -0.75 -4.148438 C -0.78125 -3.726562 -0.617188 -3.257812 -0.261719 -2.746094 Z M -0.261719 -2.746094 "/>
</g>
<g id="glyph-2-9">
<path d="M 0.496094 -0.347656 L -2.285156 -4.324219 L -1.679688 -4.75 L -1.257812 -4.144531 C -1.300781 -4.535156 -1.289062 -4.824219 -1.21875 -5.003906 C -1.152344 -5.1875 -1.039062 -5.332031 -0.882812 -5.441406 C -0.652344 -5.601562 -0.371094 -5.691406 -0.0351562 -5.710938 L 0.167969 -4.921875 C -0.0625 -4.902344 -0.261719 -4.835938 -0.425781 -4.722656 C -0.574219 -4.617188 -0.675781 -4.480469 -0.730469 -4.3125 C -0.785156 -4.140625 -0.785156 -3.960938 -0.722656 -3.765625 C -0.632812 -3.476562 -0.484375 -3.1875 -0.285156 -2.902344 L 1.171875 -0.820312 Z M 0.496094 -0.347656 "/>
</g>
<g id="glyph-2-10">
<path d="M -0.890625 -2.003906 L -0.246094 -2.542969 C -0.0234375 -2.292969 0.210938 -2.121094 0.453125 -2.027344 C 0.695312 -1.933594 0.976562 -1.921875 1.304688 -1.988281 C 1.628906 -2.054688 1.949219 -2.195312 2.261719 -2.414062 C 2.535156 -2.609375 2.753906 -2.820312 2.90625 -3.050781 C 3.0625 -3.28125 3.140625 -3.503906 3.144531 -3.722656 C 3.148438 -3.9375 3.089844 -4.128906 2.96875 -4.300781 C 2.847656 -4.472656 2.695312 -4.585938 2.503906 -4.644531 C 2.316406 -4.707031 2.074219 -4.699219 1.785156 -4.625 C 1.597656 -4.578125 1.207031 -4.441406 0.617188 -4.207031 C 0.03125 -3.976562 -0.402344 -3.84375 -0.679688 -3.808594 C -1.039062 -3.761719 -1.351562 -3.796875 -1.625 -3.910156 C -1.894531 -4.023438 -2.117188 -4.207031 -2.296875 -4.457031 C -2.488281 -4.734375 -2.59375 -5.046875 -2.601562 -5.398438 C -2.613281 -5.75 -2.511719 -6.09375 -2.296875 -6.429688 C -2.085938 -6.765625 -1.792969 -7.0625 -1.421875 -7.324219 C -1.015625 -7.609375 -0.609375 -7.792969 -0.207031 -7.878906 C 0.195312 -7.964844 0.566406 -7.941406 0.914062 -7.804688 C 1.257812 -7.664062 1.550781 -7.441406 1.789062 -7.128906 L 1.128906 -6.585938 C 0.847656 -6.90625 0.539062 -7.082031 0.199219 -7.105469 C -0.140625 -7.132812 -0.523438 -7 -0.945312 -6.703125 C -1.382812 -6.394531 -1.648438 -6.089844 -1.734375 -5.789062 C -1.824219 -5.488281 -1.789062 -5.222656 -1.628906 -4.996094 C -1.492188 -4.800781 -1.304688 -4.6875 -1.074219 -4.660156 C -0.847656 -4.628906 -0.390625 -4.753906 0.292969 -5.035156 C 0.976562 -5.3125 1.464844 -5.480469 1.753906 -5.535156 C 2.175781 -5.613281 2.542969 -5.589844 2.851562 -5.472656 C 3.164062 -5.351562 3.421875 -5.144531 3.628906 -4.851562 C 3.832031 -4.558594 3.941406 -4.222656 3.957031 -3.847656 C 3.96875 -3.472656 3.871094 -3.105469 3.65625 -2.742188 C 3.445312 -2.378906 3.140625 -2.058594 2.75 -1.785156 C 2.253906 -1.4375 1.785156 -1.21875 1.347656 -1.128906 C 0.914062 -1.039062 0.496094 -1.070312 0.101562 -1.230469 C -0.292969 -1.386719 -0.625 -1.644531 -0.890625 -2.003906 Z M -0.890625 -2.003906 "/>
</g>
<g id="glyph-2-11">
<path d="M 1.238281 -0.867188 L -2.761719 -3.992188 L -2.066406 -4.480469 L 0.175781 -2.628906 L 1.007812 -1.9375 C 0.988281 -1.988281 0.867188 -2.308594 0.640625 -2.902344 L -0.359375 -5.675781 L 0.335938 -6.160156 L 2.542969 -4.269531 L 3.273438 -3.648438 L 2.964844 -4.578125 L 2.039062 -7.351562 L 2.691406 -7.8125 L 4.234375 -2.964844 L 3.535156 -2.476562 L 1.234375 -4.414062 L 0.605469 -4.984375 L 1.941406 -1.359375 Z M 1.238281 -0.867188 "/>
</g>
<g id="glyph-2-12">
<path d="M 0.503906 -0.355469 L -2.277344 -4.328125 L -1.671875 -4.753906 L -1.277344 -4.1875 C -1.289062 -4.832031 -1.019531 -5.34375 -0.46875 -5.730469 C -0.230469 -5.898438 0.0195312 -6.007812 0.28125 -6.0625 C 0.542969 -6.117188 0.773438 -6.109375 0.96875 -6.039062 C 1.167969 -5.972656 1.355469 -5.855469 1.527344 -5.691406 C 1.640625 -5.582031 1.804688 -5.371094 2.023438 -5.0625 L 3.734375 -2.617188 L 3.0625 -2.144531 L 1.367188 -4.5625 C 1.175781 -4.835938 1.007812 -5.023438 0.859375 -5.125 C 0.710938 -5.222656 0.542969 -5.265625 0.351562 -5.253906 C 0.160156 -5.242188 -0.0234375 -5.171875 -0.203125 -5.046875 C -0.488281 -4.847656 -0.675781 -4.582031 -0.753906 -4.253906 C -0.835938 -3.925781 -0.699219 -3.507812 -0.339844 -2.996094 L 1.179688 -0.824219 Z M 0.503906 -0.355469 "/>
</g>
<g id="glyph-2-13">
<path d="M -0.59375 -1.351562 L -0.00390625 -1.921875 C 0.222656 -1.683594 0.46875 -1.550781 0.742188 -1.527344 C 1.011719 -1.503906 1.300781 -1.601562 1.605469 -1.816406 C 1.917969 -2.035156 2.101562 -2.257812 2.164062 -2.488281 C 2.226562 -2.71875 2.195312 -2.917969 2.078125 -3.089844 C 1.96875 -3.242188 1.820312 -3.316406 1.628906 -3.308594 C 1.492188 -3.304688 1.210938 -3.21875 0.777344 -3.054688 C 0.195312 -2.835938 -0.222656 -2.703125 -0.476562 -2.660156 C -0.730469 -2.617188 -0.964844 -2.640625 -1.175781 -2.734375 C -1.386719 -2.824219 -1.558594 -2.96875 -1.695312 -3.164062 C -1.820312 -3.339844 -1.894531 -3.535156 -1.917969 -3.742188 C -1.945312 -3.949219 -1.921875 -4.152344 -1.851562 -4.351562 C -1.800781 -4.5 -1.703125 -4.667969 -1.5625 -4.847656 C -1.417969 -5.027344 -1.242188 -5.191406 -1.035156 -5.335938 C -0.722656 -5.554688 -0.417969 -5.699219 -0.117188 -5.773438 C 0.179688 -5.851562 0.4375 -5.851562 0.660156 -5.777344 C 0.878906 -5.699219 1.101562 -5.550781 1.324219 -5.324219 L 0.726562 -4.769531 C 0.554688 -4.953125 0.355469 -5.054688 0.128906 -5.066406 C -0.09375 -5.082031 -0.335938 -4.996094 -0.597656 -4.816406 C -0.90625 -4.597656 -1.09375 -4.390625 -1.152344 -4.195312 C -1.214844 -4.003906 -1.195312 -3.835938 -1.101562 -3.699219 C -1.039062 -3.613281 -0.957031 -3.550781 -0.851562 -3.519531 C -0.746094 -3.488281 -0.617188 -3.488281 -0.46875 -3.523438 C -0.382812 -3.542969 -0.144531 -3.625 0.246094 -3.765625 C 0.8125 -3.972656 1.21875 -4.101562 1.464844 -4.152344 C 1.710938 -4.203125 1.941406 -4.1875 2.15625 -4.109375 C 2.371094 -4.03125 2.558594 -3.875 2.71875 -3.644531 C 2.878906 -3.421875 2.960938 -3.164062 2.96875 -2.875 C 2.976562 -2.582031 2.894531 -2.296875 2.722656 -2.015625 C 2.550781 -1.734375 2.308594 -1.484375 2 -1.265625 C 1.480469 -0.902344 1.011719 -0.734375 0.59375 -0.761719 C 0.171875 -0.785156 -0.226562 -0.984375 -0.59375 -1.351562 Z M -0.59375 -1.351562 "/>
</g>
<g id="glyph-2-14">
<path d="M 0.605469 -0.425781 L -3.238281 -5.914062 L 0.730469 -8.691406 L 1.183594 -8.042969 L -2.058594 -5.773438 L -0.878906 -4.09375 L 2.15625 -6.21875 L 2.605469 -5.574219 L -0.429688 -3.449219 L 0.878906 -1.582031 L 4.25 -3.941406 L 4.703125 -3.292969 Z M 0.605469 -0.425781 "/>
</g>
<g id="glyph-2-15">
<path d="M 0.492188 -0.34375 L -3.351562 -5.832031 L -2.679688 -6.304688 L 1.164062 -0.816406 Z M 0.492188 -0.34375 "/>
</g>
<g id="glyph-2-16">
<path d="M 1.546875 1.199219 L 1.03125 0.617188 C 1.203125 0.554688 1.347656 0.484375 1.457031 0.40625 C 1.605469 0.304688 1.710938 0.195312 1.765625 0.0820312 C 1.820312 -0.03125 1.84375 -0.152344 1.839844 -0.28125 C 1.832031 -0.378906 1.785156 -0.59375 1.691406 -0.929688 C 1.679688 -0.976562 1.660156 -1.042969 1.636719 -1.136719 L -2.660156 -4.0625 L -1.933594 -4.570312 L 0.503906 -2.847656 C 0.816406 -2.632812 1.128906 -2.390625 1.4375 -2.128906 C 1.300781 -2.492188 1.179688 -2.859375 1.082031 -3.230469 L 0.308594 -6.140625 L 0.980469 -6.613281 L 2.300781 -1.511719 C 2.445312 -0.960938 2.527344 -0.570312 2.554688 -0.34375 C 2.589844 -0.0390625 2.566406 0.222656 2.484375 0.433594 C 2.402344 0.644531 2.253906 0.828125 2.039062 0.976562 C 1.910156 1.066406 1.746094 1.140625 1.546875 1.199219 Z M 1.546875 1.199219 "/>
</g>
<g id="glyph-2-17">
<path d="M 0.613281 0.0625 L 1.335938 -0.300781 C 1.503906 -0.117188 1.683594 -0.0234375 1.875 -0.015625 C 2.128906 -0.0117188 2.398438 -0.105469 2.691406 -0.308594 C 3 -0.527344 3.199219 -0.757812 3.28125 -1.003906 C 3.363281 -1.246094 3.355469 -1.5 3.257812 -1.769531 C 3.199219 -1.929688 3.011719 -2.230469 2.703125 -2.667969 C 2.648438 -2.113281 2.40625 -1.683594 1.964844 -1.375 C 1.417969 -0.992188 0.859375 -0.894531 0.28125 -1.078125 C -0.292969 -1.265625 -0.773438 -1.632812 -1.160156 -2.183594 C -1.425781 -2.5625 -1.601562 -2.960938 -1.691406 -3.378906 C -1.777344 -3.792969 -1.75 -4.183594 -1.613281 -4.539062 C -1.476562 -4.894531 -1.230469 -5.199219 -0.878906 -5.445312 C -0.410156 -5.773438 0.109375 -5.855469 0.679688 -5.6875 L 0.347656 -6.167969 L 0.96875 -6.601562 L 3.375 -3.164062 C 3.808594 -2.546875 4.050781 -2.0625 4.105469 -1.71875 C 4.160156 -1.371094 4.105469 -1.027344 3.9375 -0.6875 C 3.765625 -0.34375 3.484375 -0.0351562 3.085938 0.246094 C 2.609375 0.578125 2.152344 0.738281 1.710938 0.730469 C 1.269531 0.722656 0.902344 0.5 0.613281 0.0625 M -0.503906 -2.71875 C -0.136719 -2.195312 0.234375 -1.886719 0.609375 -1.792969 C 0.984375 -1.699219 1.328125 -1.761719 1.636719 -1.980469 C 1.949219 -2.195312 2.125 -2.496094 2.167969 -2.882812 C 2.210938 -3.265625 2.054688 -3.714844 1.695312 -4.222656 C 1.355469 -4.710938 0.992188 -5 0.601562 -5.097656 C 0.210938 -5.191406 -0.132812 -5.132812 -0.4375 -4.921875 C -0.738281 -4.710938 -0.90625 -4.410156 -0.945312 -4.019531 C -0.984375 -3.632812 -0.835938 -3.195312 -0.503906 -2.71875 Z M -0.503906 -2.71875 "/>
</g>
<g id="glyph-2-18">
<path d="M 0.5625 -0.394531 L -3.28125 -5.882812 L -2.554688 -6.390625 L 0.835938 -1.550781 L 3.539062 -3.441406 L 3.992188 -2.792969 Z M 0.5625 -0.394531 "/>
</g>
<g id="glyph-2-19">
<path d="M 0.589844 -0.414062 L -3.25 -5.902344 L -1.179688 -7.351562 C -0.816406 -7.605469 -0.527344 -7.785156 -0.308594 -7.882812 C -0.0078125 -8.027344 0.277344 -8.101562 0.546875 -8.101562 C 0.816406 -8.105469 1.089844 -8.03125 1.359375 -7.878906 C 1.628906 -7.730469 1.859375 -7.519531 2.050781 -7.25 C 2.375 -6.78125 2.503906 -6.28125 2.433594 -5.75 C 2.363281 -5.21875 1.9375 -4.683594 1.164062 -4.140625 L -0.246094 -3.152344 L 1.316406 -0.921875 L 0.589844 -0.414062 M -0.699219 -3.800781 L 0.722656 -4.796875 C 1.191406 -5.125 1.460938 -5.445312 1.535156 -5.757812 C 1.613281 -6.070312 1.539062 -6.386719 1.316406 -6.703125 C 1.15625 -6.929688 0.960938 -7.085938 0.730469 -7.167969 C 0.5 -7.25 0.269531 -7.253906 0.0429688 -7.171875 C -0.101562 -7.117188 -0.339844 -6.976562 -0.667969 -6.746094 L -2.070312 -5.761719 Z M -0.699219 -3.800781 "/>
</g>
<g id="glyph-2-20">
<path d="M -1.136719 -2.167969 C -1.652344 -2.902344 -1.832031 -3.589844 -1.667969 -4.230469 C -1.535156 -4.765625 -1.21875 -5.207031 -0.726562 -5.550781 C -0.179688 -5.933594 0.390625 -6.066406 0.988281 -5.949219 C 1.585938 -5.835938 2.105469 -5.460938 2.546875 -4.832031 C 2.90625 -4.320312 3.113281 -3.863281 3.164062 -3.460938 C 3.214844 -3.0625 3.152344 -2.675781 2.972656 -2.308594 C 2.792969 -1.941406 2.527344 -1.636719 2.183594 -1.394531 C 1.625 -1.003906 1.050781 -0.867188 0.457031 -0.984375 C -0.136719 -1.101562 -0.667969 -1.496094 -1.136719 -2.167969 M -0.445312 -2.652344 C -0.0898438 -2.140625 0.289062 -1.839844 0.6875 -1.742188 C 1.089844 -1.644531 1.457031 -1.710938 1.792969 -1.949219 C 2.128906 -2.183594 2.316406 -2.503906 2.363281 -2.914062 C 2.40625 -3.324219 2.246094 -3.789062 1.878906 -4.3125 C 1.535156 -4.804688 1.164062 -5.097656 0.761719 -5.195312 C 0.359375 -5.292969 -0.00390625 -5.222656 -0.335938 -4.992188 C -0.675781 -4.753906 -0.867188 -4.433594 -0.910156 -4.027344 C -0.957031 -3.617188 -0.800781 -3.160156 -0.445312 -2.652344 Z M -0.445312 -2.652344 "/>
</g>
<g id="glyph-3-0">
<path d="M 0.539062 -2.757812 L 1.609375 -2.851562 C 1.660156 -2.421875 1.78125 -2.070312 1.964844 -1.796875 C 2.152344 -1.519531 2.4375 -1.296875 2.828125 -1.128906 C 3.21875 -0.957031 3.660156 -0.875 4.148438 -0.875 C 4.582031 -0.875 4.964844 -0.9375 5.296875 -1.066406 C 5.628906 -1.195312 5.875 -1.371094 6.039062 -1.597656 C 6.199219 -1.820312 6.28125 -2.066406 6.28125 -2.332031 C 6.28125 -2.601562 6.203125 -2.835938 6.046875 -3.039062 C 5.890625 -3.238281 5.632812 -3.40625 5.273438 -3.546875 C 5.042969 -3.632812 4.53125 -3.773438 3.742188 -3.964844 C 2.953125 -4.152344 2.402344 -4.332031 2.085938 -4.5 C 1.675781 -4.714844 1.371094 -4.980469 1.167969 -5.300781 C 0.96875 -5.617188 0.867188 -5.972656 0.867188 -6.367188 C 0.867188 -6.804688 0.992188 -7.207031 1.234375 -7.585938 C 1.484375 -7.960938 1.839844 -8.246094 2.3125 -8.445312 C 2.785156 -8.636719 3.3125 -8.734375 3.890625 -8.734375 C 4.527344 -8.734375 5.089844 -8.632812 5.574219 -8.429688 C 6.0625 -8.222656 6.433594 -7.921875 6.695312 -7.523438 C 6.957031 -7.125 7.097656 -6.671875 7.117188 -6.171875 L 6.03125 -6.085938 C 5.96875 -6.628906 5.773438 -7.039062 5.433594 -7.320312 C 5.097656 -7.59375 4.597656 -7.734375 3.9375 -7.734375 C 3.25 -7.734375 2.75 -7.609375 2.433594 -7.355469 C 2.121094 -7.105469 1.960938 -6.800781 1.960938 -6.445312 C 1.960938 -6.136719 2.074219 -5.882812 2.296875 -5.683594 C 2.515625 -5.484375 3.085938 -5.28125 4.011719 -5.070312 C 4.933594 -4.863281 5.566406 -4.679688 5.914062 -4.523438 C 6.410156 -4.292969 6.78125 -4 7.019531 -3.648438 C 7.257812 -3.292969 7.375 -2.886719 7.375 -2.425781 C 7.375 -1.96875 7.246094 -1.539062 6.984375 -1.132812 C 6.722656 -0.730469 6.347656 -0.414062 5.855469 -0.191406 C 5.367188 0.0351562 4.8125 0.148438 4.203125 0.148438 C 3.421875 0.148438 2.773438 0.03125 2.246094 -0.195312 C 1.722656 -0.417969 1.308594 -0.761719 1.011719 -1.214844 C 0.710938 -1.671875 0.554688 -2.1875 0.539062 -2.757812 Z M 0.539062 -2.757812 "/>
</g>
<g id="glyph-3-1">
<path d="M 0.398438 -3.109375 C 0.398438 -4.261719 0.71875 -5.117188 1.359375 -5.671875 C 1.894531 -6.132812 2.546875 -6.363281 3.316406 -6.363281 C 4.171875 -6.363281 4.871094 -6.082031 5.414062 -5.523438 C 5.957031 -4.960938 6.226562 -4.1875 6.226562 -3.199219 C 6.226562 -2.398438 6.109375 -1.769531 5.867188 -1.308594 C 5.628906 -0.851562 5.277344 -0.492188 4.820312 -0.242188 C 4.359375 0.0117188 3.859375 0.140625 3.316406 0.140625 C 2.445312 0.140625 1.742188 -0.140625 1.203125 -0.695312 C 0.667969 -1.253906 0.398438 -2.058594 0.398438 -3.109375 M 1.484375 -3.109375 C 1.484375 -2.3125 1.65625 -1.71875 2.003906 -1.320312 C 2.351562 -0.925781 2.789062 -0.726562 3.316406 -0.726562 C 3.839844 -0.726562 4.273438 -0.925781 4.625 -1.324219 C 4.96875 -1.722656 5.144531 -2.328125 5.144531 -3.148438 C 5.144531 -3.914062 4.96875 -4.5 4.621094 -4.894531 C 4.269531 -5.292969 3.835938 -5.492188 3.316406 -5.492188 C 2.789062 -5.492188 2.351562 -5.292969 2.003906 -4.898438 C 1.65625 -4.503906 1.484375 -3.90625 1.484375 -3.109375 Z M 1.484375 -3.109375 "/>
</g>
<g id="glyph-3-2">
<path d="M 4.945312 -3.367188 L 4.945312 -4.375 L 8.585938 -4.382812 L 8.585938 -1.195312 C 8.023438 -0.75 7.449219 -0.414062 6.855469 -0.191406 C 6.261719 0.0351562 5.652344 0.148438 5.027344 0.148438 C 4.183594 0.148438 3.417969 -0.0351562 2.726562 -0.394531 C 2.039062 -0.757812 1.515625 -1.277344 1.164062 -1.960938 C 0.8125 -2.644531 0.640625 -3.410156 0.640625 -4.253906 C 0.640625 -5.089844 0.8125 -5.871094 1.164062 -6.59375 C 1.511719 -7.320312 2.015625 -7.859375 2.671875 -8.210938 C 3.328125 -8.5625 4.085938 -8.734375 4.9375 -8.734375 C 5.558594 -8.734375 6.121094 -8.636719 6.625 -8.433594 C 7.125 -8.234375 7.519531 -7.953125 7.804688 -7.59375 C 8.089844 -7.234375 8.304688 -6.765625 8.453125 -6.1875 L 7.429688 -5.90625 C 7.300781 -6.34375 7.140625 -6.6875 6.949219 -6.9375 C 6.757812 -7.1875 6.484375 -7.386719 6.128906 -7.539062 C 5.773438 -7.6875 5.378906 -7.765625 4.945312 -7.765625 C 4.425781 -7.765625 3.976562 -7.683594 3.597656 -7.527344 C 3.21875 -7.367188 2.914062 -7.160156 2.679688 -6.902344 C 2.449219 -6.644531 2.265625 -6.359375 2.140625 -6.054688 C 1.917969 -5.519531 1.8125 -4.945312 1.8125 -4.324219 C 1.8125 -3.558594 1.941406 -2.917969 2.207031 -2.402344 C 2.46875 -1.886719 2.851562 -1.503906 3.359375 -1.253906 C 3.859375 -1.003906 4.394531 -0.878906 4.960938 -0.878906 C 5.453125 -0.878906 5.9375 -0.972656 6.40625 -1.164062 C 6.875 -1.351562 7.226562 -1.554688 7.46875 -1.769531 L 7.46875 -3.367188 Z M 4.945312 -3.367188 "/>
</g>
<g id="glyph-3-3">
<path d="M 2.425781 0 L 0.148438 -8.589844 L 1.3125 -8.589844 L 2.617188 -2.960938 C 2.757812 -2.367188 2.878906 -1.78125 2.984375 -1.203125 C 3.199219 -2.117188 3.328125 -2.648438 3.367188 -2.789062 L 5.003906 -8.589844 L 6.375 -8.589844 L 7.605469 -4.242188 C 7.914062 -3.164062 8.136719 -2.148438 8.273438 -1.203125 C 8.382812 -1.742188 8.523438 -2.367188 8.703125 -3.070312 L 10.046875 -8.589844 L 11.191406 -8.589844 L 8.835938 0 L 7.742188 0 L 5.929688 -6.546875 C 5.777344 -7.089844 5.6875 -7.425781 5.660156 -7.554688 C 5.570312 -7.15625 5.484375 -6.820312 5.40625 -6.546875 L 3.585938 0 Z M 2.425781 0 "/>
</g>
<g id="glyph-3-4">
<path d="M 7.054688 -3.011719 L 8.191406 -2.726562 C 7.953125 -1.789062 7.523438 -1.078125 6.90625 -0.589844 C 6.285156 -0.0976562 5.527344 0.148438 4.632812 0.148438 C 3.710938 0.148438 2.957031 -0.0429688 2.375 -0.417969 C 1.796875 -0.796875 1.355469 -1.34375 1.050781 -2.054688 C 0.75 -2.769531 0.597656 -3.539062 0.597656 -4.359375 C 0.597656 -5.253906 0.769531 -6.035156 1.109375 -6.699219 C 1.453125 -7.367188 1.9375 -7.871094 2.570312 -8.21875 C 3.199219 -8.5625 3.894531 -8.734375 4.652344 -8.734375 C 5.511719 -8.734375 6.234375 -8.515625 6.820312 -8.078125 C 7.40625 -7.640625 7.8125 -7.027344 8.046875 -6.234375 L 6.925781 -5.96875 C 6.726562 -6.59375 6.4375 -7.050781 6.058594 -7.335938 C 5.679688 -7.621094 5.203125 -7.765625 4.628906 -7.765625 C 3.96875 -7.765625 3.417969 -7.605469 2.972656 -7.289062 C 2.53125 -6.972656 2.21875 -6.546875 2.039062 -6.015625 C 1.859375 -5.480469 1.769531 -4.929688 1.769531 -4.367188 C 1.769531 -3.632812 1.875 -2.996094 2.089844 -2.453125 C 2.300781 -1.90625 2.632812 -1.5 3.082031 -1.230469 C 3.53125 -0.960938 4.015625 -0.828125 4.539062 -0.828125 C 5.175781 -0.828125 5.714844 -1.007812 6.15625 -1.375 C 6.597656 -1.742188 6.898438 -2.289062 7.054688 -3.011719 Z M 7.054688 -3.011719 "/>
</g>
<g id="glyph-3-5">
<path d="M 3.382812 0 L 0.0546875 -8.589844 L 1.28125 -8.589844 L 3.515625 -2.351562 C 3.695312 -1.847656 3.84375 -1.378906 3.96875 -0.945312 C 4.097656 -1.414062 4.253906 -1.882812 4.429688 -2.351562 L 6.75 -8.589844 L 7.910156 -8.589844 L 4.546875 0 Z M 3.382812 0 "/>
</g>
<g id="glyph-3-6">
<path d="M 1.117188 0 L 1.117188 -8.589844 L 2.257812 -8.589844 L 2.257812 0 Z M 1.117188 0 "/>
</g>
</g>
<clipPath id="clip-0">
<path clip-rule="nonzero" d="M 64.800781 204 L 381.601562 204 L 381.601562 206 L 64.800781 206 Z M 64.800781 204 "/>
</clipPath>
<clipPath id="clip-1">
<path clip-rule="nonzero" d="M 460.800781 204 L 777.601562 204 L 777.601562 206 L 460.800781 206 Z M 460.800781 204 "/>
</clipPath>
</defs>
<rect x="-79.2" y="-46.8" width="950.4" height="561.6" fill="rgb(100%, 100%, 100%)" fill-opacity="1"/>
<g fill="rgb(0%, 0%, 0%)" fill-opacity="1">
<use xlink:href="#glyph-0-0" x="190.394531" y="27.253906"/>
<use xlink:href="#glyph-0-1" x="200.79375" y="27.253906"/>
<use xlink:href="#glyph-0-2" x="208.802344" y="27.253906"/>
<use xlink:href="#glyph-0-1" x="213.597656" y="27.253906"/>
<use xlink:href="#glyph-0-3" x="221.60625" y="27.253906"/>
<use xlink:href="#glyph-0-2" x="229.614844" y="27.253906"/>
<use xlink:href="#glyph-0-4" x="234.410156" y="27.253906"/>
<use xlink:href="#glyph-0-5" x="238.410937" y="27.253906"/>
<use xlink:href="#glyph-0-6" x="247.207031" y="27.253906"/>
</g>
<g fill="rgb(0%, 0%, 0%)" fill-opacity="1">
<use xlink:href="#glyph-1-0" x="18.71875" y="314.925781"/>
<use xlink:href="#glyph-1-1" x="18.71875" y="306.921875"/>
<use xlink:href="#glyph-1-1" x="18.71875" y="300.248047"/>
<use xlink:href="#glyph-1-2" x="18.71875" y="293.574219"/>
<use xlink:href="#glyph-1-3" x="18.71875" y="290.908203"/>
<use xlink:href="#glyph-1-4" x="18.71875" y="284.234375"/>
<use xlink:href="#glyph-1-5" x="18.71875" y="277.560547"/>
<use xlink:href="#glyph-1-6" x="18.71875" y="274.226562"/>
<use xlink:href="#glyph-1-3" x="18.71875" y="270.230469"/>
<use xlink:href="#glyph-1-7" x="18.71875" y="263.556641"/>
<use xlink:href="#glyph-1-8" x="18.71875" y="256.882812"/>
<use xlink:href="#glyph-1-9" x="18.71875" y="254.216797"/>
<use xlink:href="#glyph-1-10" x="18.71875" y="248.216797"/>
<use xlink:href="#glyph-1-3" x="18.71875" y="244.882812"/>
<use xlink:href="#glyph-1-6" x="18.71875" y="238.208984"/>
<use xlink:href="#glyph-1-3" x="18.71875" y="234.212891"/>
<use xlink:href="#glyph-1-4" x="18.71875" y="227.539062"/>
<use xlink:href="#glyph-1-5" x="18.71875" y="220.865234"/>
<use xlink:href="#glyph-1-11" x="18.71875" y="217.53125"/>
<use xlink:href="#glyph-1-1" x="18.71875" y="207.535156"/>
<use xlink:href="#glyph-1-4" x="18.71875" y="200.861328"/>
<use xlink:href="#glyph-1-3" x="18.71875" y="194.1875"/>
<use xlink:href="#glyph-1-2" x="18.71875" y="187.513672"/>
<use xlink:href="#glyph-1-12" x="18.71875" y="184.847656"/>
<use xlink:href="#glyph-1-9" x="18.71875" y="180.851562"/>
<use xlink:href="#glyph-1-13" x="18.71875" y="174.851562"/>
<use xlink:href="#glyph-1-14" x="18.71875" y="168.851562"/>
<use xlink:href="#glyph-1-2" x="18.71875" y="162.177734"/>
<use xlink:href="#glyph-1-3" x="18.71875" y="159.511719"/>
<use xlink:href="#glyph-1-5" x="18.71875" y="152.837891"/>
<use xlink:href="#glyph-1-13" x="18.71875" y="149.503906"/>
<use xlink:href="#glyph-1-1" x="18.71875" y="143.503906"/>
<use xlink:href="#glyph-1-3" x="18.71875" y="136.830078"/>
<use xlink:href="#glyph-1-15" x="18.71875" y="130.15625"/>
<use xlink:href="#glyph-1-15" x="18.71875" y="126.822266"/>
<use xlink:href="#glyph-1-8" x="18.71875" y="123.488281"/>
<use xlink:href="#glyph-1-13" x="18.71875" y="120.822266"/>
<use xlink:href="#glyph-1-8" x="18.71875" y="114.822266"/>
<use xlink:href="#glyph-1-3" x="18.71875" y="112.15625"/>
<use xlink:href="#glyph-1-16" x="18.71875" y="105.482422"/>
<use xlink:href="#glyph-1-10" x="18.71875" y="98.808594"/>
</g>
<path fill="none" stroke-width="0.75" stroke-linecap="round" stroke-linejoin="round" stroke="rgb(0%, 0%, 0%)" stroke-opacity="1" stroke-miterlimit="10" d="M 64.800781 355.199219 L 64.800781 55.199219 "/>
<path fill="none" stroke-width="0.75" stroke-linecap="round" stroke-linejoin="round" stroke="rgb(0%, 0%, 0%)" stroke-opacity="1" stroke-miterlimit="10" d="M 64.800781 355.199219 L 57.601562 355.199219 "/>
<path fill="none" stroke-width="0.75" stroke-linecap="round" stroke-linejoin="round" stroke="rgb(0%, 0%, 0%)" stroke-opacity="1" stroke-miterlimit="10" d="M 64.800781 280.199219 L 57.601562 280.199219 "/>
<path fill="none" stroke-width="0.75" stroke-linecap="round" stroke-linejoin="round" stroke="rgb(0%, 0%, 0%)" stroke-opacity="1" stroke-miterlimit="10" d="M 64.800781 205.199219 L 57.601562 205.199219 "/>
<path fill="none" stroke-width="0.75" stroke-linecap="round" stroke-linejoin="round" stroke="rgb(0%, 0%, 0%)" stroke-opacity="1" stroke-miterlimit="10" d="M 64.800781 130.199219 L 57.601562 130.199219 "/>
<path fill="none" stroke-width="0.75" stroke-linecap="round" stroke-linejoin="round" stroke="rgb(0%, 0%, 0%)" stroke-opacity="1" stroke-miterlimit="10" d="M 64.800781 55.199219 L 57.601562 55.199219 "/>
<g fill="rgb(0%, 0%, 0%)" fill-opacity="1">
<use xlink:href="#glyph-1-12" x="47.519531" y="365.539062"/>
<use xlink:href="#glyph-1-17" x="47.519531" y="361.542969"/>
<use xlink:href="#glyph-1-18" x="47.519531" y="354.869141"/>
<use xlink:href="#glyph-1-19" x="47.519531" y="351.535156"/>
</g>
<g fill="rgb(0%, 0%, 0%)" fill-opacity="1">
<use xlink:href="#glyph-1-12" x="47.519531" y="290.539062"/>
<use xlink:href="#glyph-1-19" x="47.519531" y="286.542969"/>
<use xlink:href="#glyph-1-18" x="47.519531" y="279.869141"/>
<use xlink:href="#glyph-1-20" x="47.519531" y="276.535156"/>
</g>
<g fill="rgb(0%, 0%, 0%)" fill-opacity="1">
<use xlink:href="#glyph-1-19" x="47.519531" y="213.539062"/>
<use xlink:href="#glyph-1-18" x="47.519531" y="206.865234"/>
<use xlink:href="#glyph-1-19" x="47.519531" y="203.53125"/>
</g>
<g fill="rgb(0%, 0%, 0%)" fill-opacity="1">
<use xlink:href="#glyph-1-19" x="47.519531" y="138.539062"/>
<use xlink:href="#glyph-1-18" x="47.519531" y="131.865234"/>
<use xlink:href="#glyph-1-20" x="47.519531" y="128.53125"/>
</g>
<g fill="rgb(0%, 0%, 0%)" fill-opacity="1">
<use xlink:href="#glyph-1-17" x="47.519531" y="63.539062"/>
<use xlink:href="#glyph-1-18" x="47.519531" y="56.865234"/>
<use xlink:href="#glyph-1-19" x="47.519531" y="53.53125"/>
</g>
<path fill="none" stroke-width="0.75" stroke-linecap="round" stroke-linejoin="round" stroke="rgb(0%, 0%, 0%)" stroke-opacity="1" stroke-miterlimit="10" d="M 105.867188 367.199219 L 340.535156 367.199219 "/>
<path fill="none" stroke-width="0.75" stroke-linecap="round" stroke-linejoin="round" stroke="rgb(0%, 0%, 0%)" stroke-opacity="1" stroke-miterlimit="10" d="M 105.867188 367.199219 L 105.867188 374.398438 "/>
<path fill="none" stroke-width="0.75" stroke-linecap="round" stroke-linejoin="round" stroke="rgb(0%, 0%, 0%)" stroke-opacity="1" stroke-miterlimit="10" d="M 164.535156 367.199219 L 164.535156 374.398438 "/>
<path fill="none" stroke-width="0.75" stroke-linecap="round" stroke-linejoin="round" stroke="rgb(0%, 0%, 0%)" stroke-opacity="1" stroke-miterlimit="10" d="M 223.199219 367.199219 L 223.199219 374.398438 "/>
<path fill="none" stroke-width="0.75" stroke-linecap="round" stroke-linejoin="round" stroke="rgb(0%, 0%, 0%)" stroke-opacity="1" stroke-miterlimit="10" d="M 281.867188 367.199219 L 281.867188 374.398438 "/>
<path fill="none" stroke-width="0.75" stroke-linecap="round" stroke-linejoin="round" stroke="rgb(0%, 0%, 0%)" stroke-opacity="1" stroke-miterlimit="10" d="M 340.535156 367.199219 L 340.535156 374.398438 "/>
<g fill="rgb(0%, 0%, 0%)" fill-opacity="1">
<use xlink:href="#glyph-2-0" x="58.246094" y="422.933594"/>
<use xlink:href="#glyph-2-1" x="60.376305" y="421.442004"/>
<use xlink:href="#glyph-2-1" x="66.763195" y="416.969855"/>
<use xlink:href="#glyph-2-2" x="73.150085" y="412.497707"/>
<use xlink:href="#glyph-2-3" x="77.414252" y="409.511905"/>
<use xlink:href="#glyph-2-4" x="81.678418" y="406.526104"/>
<use xlink:href="#glyph-2-5" x="83.381838" y="405.333356"/>
<use xlink:href="#glyph-2-6" x="87.646005" y="402.347555"/>
<use xlink:href="#glyph-2-2" x="89.776216" y="400.855965"/>
<use xlink:href="#glyph-2-7" x="94.040382" y="397.870163"/>
<use xlink:href="#glyph-2-8" x="96.170594" y="396.378573"/>
<use xlink:href="#glyph-2-9" x="100.43476" y="393.392772"/>
<use xlink:href="#glyph-2-2" x="102.988018" y="391.604961"/>
</g>
<g fill="rgb(0%, 0%, 0%)" fill-opacity="1">
<use xlink:href="#glyph-2-10" x="125.46875" y="417.015625"/>
<use xlink:href="#glyph-2-8" x="130.582755" y="413.43476"/>
<use xlink:href="#glyph-2-5" x="134.846921" y="410.448959"/>
<use xlink:href="#glyph-2-11" x="139.111087" y="407.463158"/>
<use xlink:href="#glyph-2-12" x="144.648139" y="403.586072"/>
<use xlink:href="#glyph-2-7" x="148.912306" y="400.600271"/>
<use xlink:href="#glyph-2-13" x="151.042517" y="399.108681"/>
<use xlink:href="#glyph-2-6" x="154.876148" y="396.424343"/>
<use xlink:href="#glyph-2-5" x="157.00636" y="394.932753"/>
<use xlink:href="#glyph-2-9" x="161.270526" y="391.946952"/>
<use xlink:href="#glyph-2-6" x="163.823785" y="390.159141"/>
</g>
<g fill="rgb(0%, 0%, 0%)" fill-opacity="1">
<use xlink:href="#glyph-2-14" x="192.164062" y="411.257812"/>
<use xlink:href="#glyph-2-5" x="197.278067" y="407.676948"/>
<use xlink:href="#glyph-2-9" x="201.542233" y="404.691146"/>
<use xlink:href="#glyph-2-15" x="204.095492" y="402.903336"/>
<use xlink:href="#glyph-2-16" x="205.798912" y="401.710588"/>
<use xlink:href="#glyph-2-7" x="209.632544" y="399.02625"/>
<use xlink:href="#glyph-2-2" x="211.762755" y="397.53466"/>
<use xlink:href="#glyph-2-17" x="216.026921" y="394.548859"/>
<use xlink:href="#glyph-2-17" x="220.291088" y="391.563057"/>
</g>
<g fill="rgb(0%, 0%, 0%)" fill-opacity="1">
<use xlink:href="#glyph-2-18" x="253.378906" y="409.476562"/>
<use xlink:href="#glyph-2-5" x="257.643073" y="406.490761"/>
<use xlink:href="#glyph-2-6" x="261.907239" y="403.50496"/>
<use xlink:href="#glyph-2-2" x="264.03745" y="402.01337"/>
<use xlink:href="#glyph-2-7" x="268.301617" y="399.027568"/>
<use xlink:href="#glyph-2-2" x="270.431828" y="397.535978"/>
<use xlink:href="#glyph-2-17" x="274.695994" y="394.550177"/>
<use xlink:href="#glyph-2-17" x="278.960161" y="391.564375"/>
</g>
<g fill="rgb(0%, 0%, 0%)" fill-opacity="1">
<use xlink:href="#glyph-2-19" x="327.078125" y="400.082031"/>
<use xlink:href="#glyph-2-20" x="332.19213" y="396.501167"/>
<use xlink:href="#glyph-2-13" x="336.456296" y="393.515365"/>
<use xlink:href="#glyph-2-6" x="340.289928" y="390.831028"/>
</g>
<g clip-path="url(#clip-0)">
<path fill="none" stroke-width="0.75" stroke-linecap="round" stroke-linejoin="round" stroke="rgb(41.960784%, 44.705882%, 50.196078%)" stroke-opacity="1" stroke-dasharray="3 3" stroke-miterlimit="10" d="M 64.800781 205.199219 L 381.601562 205.199219 "/>
</g>
<path fill-rule="nonzero" fill="rgb(12.156863%, 35.294118%, 47.843137%)" fill-opacity="1" stroke-width="0.75" stroke-linecap="round" stroke-linejoin="round" stroke="rgb(12.156863%, 35.294118%, 47.843137%)" stroke-opacity="1" stroke-miterlimit="10" d="M 336.769531 57.601562 C 336.769531 61.199219 331.371094 61.199219 331.371094 57.601562 C 331.371094 54 336.769531 54 336.769531 57.601562 "/>
<path fill-rule="nonzero" fill="rgb(71.764706%, 47.45098%, 12.156863%)" fill-opacity="1" d="M 334.070312 67.800781 L 337.707031 74.097656 L 330.433594 74.097656 Z M 334.070312 67.800781 "/>
<g fill="rgb(0%, 0%, 0%)" fill-opacity="1">
<use xlink:href="#glyph-3-0" x="344.871094" y="62.394531"/>
<use xlink:href="#glyph-3-1" x="352.875" y="62.394531"/>
<use xlink:href="#glyph-3-2" x="359.548828" y="62.394531"/>
</g>
<g fill="rgb(0%, 0%, 0%)" fill-opacity="1">
<use xlink:href="#glyph-3-3" x="344.871094" y="76.792969"/>
<use xlink:href="#glyph-3-4" x="356.197266" y="76.792969"/>
<use xlink:href="#glyph-3-5" x="364.863281" y="76.792969"/>
<use xlink:href="#glyph-3-6" x="372.867188" y="76.792969"/>
</g>
<g fill="rgb(0%, 0%, 0%)" fill-opacity="1">
<use xlink:href="#glyph-0-7" x="569.992188" y="27.253906"/>
<use xlink:href="#glyph-0-5" x="579.596875" y="27.253906"/>
<use xlink:href="#glyph-0-8" x="588.392969" y="27.253906"/>
<use xlink:href="#glyph-0-4" x="596.401562" y="27.253906"/>
<use xlink:href="#glyph-0-2" x="600.402344" y="27.253906"/>
<use xlink:href="#glyph-0-4" x="605.197656" y="27.253906"/>
<use xlink:href="#glyph-0-9" x="609.198438" y="27.253906"/>
<use xlink:href="#glyph-0-1" x="617.207031" y="27.253906"/>
<use xlink:href="#glyph-0-10" x="625.215625" y="27.253906"/>
<use xlink:href="#glyph-0-3" x="629.216406" y="27.253906"/>
<use xlink:href="#glyph-0-5" x="637.225" y="27.253906"/>
<use xlink:href="#glyph-0-11" x="646.021094" y="27.253906"/>
<use xlink:href="#glyph-0-6" x="654.817188" y="27.253906"/>
<use xlink:href="#glyph-0-2" x="663.613281" y="27.253906"/>
</g>
<g fill="rgb(0%, 0%, 0%)" fill-opacity="1">
<use xlink:href="#glyph-1-0" x="414.71875" y="314.925781"/>
<use xlink:href="#glyph-1-1" x="414.71875" y="306.921875"/>
<use xlink:href="#glyph-1-1" x="414.71875" y="300.248047"/>
<use xlink:href="#glyph-1-2" x="414.71875" y="293.574219"/>
<use xlink:href="#glyph-1-3" x="414.71875" y="290.908203"/>
<use xlink:href="#glyph-1-4" x="414.71875" y="284.234375"/>
<use xlink:href="#glyph-1-5" x="414.71875" y="277.560547"/>
<use xlink:href="#glyph-1-6" x="414.71875" y="274.226562"/>
<use xlink:href="#glyph-1-3" x="414.71875" y="270.230469"/>
<use xlink:href="#glyph-1-7" x="414.71875" y="263.556641"/>
<use xlink:href="#glyph-1-8" x="414.71875" y="256.882812"/>
<use xlink:href="#glyph-1-9" x="414.71875" y="254.216797"/>
<use xlink:href="#glyph-1-10" x="414.71875" y="248.216797"/>
<use xlink:href="#glyph-1-3" x="414.71875" y="244.882813"/>
<use xlink:href="#glyph-1-6" x="414.71875" y="238.208984"/>
<use xlink:href="#glyph-1-3" x="414.71875" y="234.212891"/>
<use xlink:href="#glyph-1-4" x="414.71875" y="227.539063"/>
<use xlink:href="#glyph-1-5" x="414.71875" y="220.865234"/>
<use xlink:href="#glyph-1-11" x="414.71875" y="217.53125"/>
<use xlink:href="#glyph-1-1" x="414.71875" y="207.535156"/>
<use xlink:href="#glyph-1-4" x="414.71875" y="200.861328"/>
<use xlink:href="#glyph-1-3" x="414.71875" y="194.1875"/>
<use xlink:href="#glyph-1-2" x="414.71875" y="187.513672"/>
<use xlink:href="#glyph-1-12" x="414.71875" y="184.847656"/>
<use xlink:href="#glyph-1-9" x="414.71875" y="180.851563"/>
<use xlink:href="#glyph-1-13" x="414.71875" y="174.851563"/>
<use xlink:href="#glyph-1-14" x="414.71875" y="168.851563"/>
<use xlink:href="#glyph-1-2" x="414.71875" y="162.177734"/>
<use xlink:href="#glyph-1-3" x="414.71875" y="159.511719"/>
<use xlink:href="#glyph-1-5" x="414.71875" y="152.837891"/>
<use xlink:href="#glyph-1-13" x="414.71875" y="149.503906"/>
<use xlink:href="#glyph-1-1" x="414.71875" y="143.503906"/>
<use xlink:href="#glyph-1-3" x="414.71875" y="136.830078"/>
<use xlink:href="#glyph-1-15" x="414.71875" y="130.15625"/>
<use xlink:href="#glyph-1-15" x="414.71875" y="126.822266"/>
<use xlink:href="#glyph-1-8" x="414.71875" y="123.488281"/>
<use xlink:href="#glyph-1-13" x="414.71875" y="120.822266"/>
<use xlink:href="#glyph-1-8" x="414.71875" y="114.822266"/>
<use xlink:href="#glyph-1-3" x="414.71875" y="112.15625"/>
<use xlink:href="#glyph-1-16" x="414.71875" y="105.482422"/>
<use xlink:href="#glyph-1-10" x="414.71875" y="98.808594"/>
</g>
<path fill="none" stroke-width="0.75" stroke-linecap="round" stroke-linejoin="round" stroke="rgb(0%, 0%, 0%)" stroke-opacity="1" stroke-miterlimit="10" d="M 460.800781 355.199219 L 460.800781 55.199219 "/>
<path fill="none" stroke-width="0.75" stroke-linecap="round" stroke-linejoin="round" stroke="rgb(0%, 0%, 0%)" stroke-opacity="1" stroke-miterlimit="10" d="M 460.800781 355.199219 L 453.601562 355.199219 "/>
<path fill="none" stroke-width="0.75" stroke-linecap="round" stroke-linejoin="round" stroke="rgb(0%, 0%, 0%)" stroke-opacity="1" stroke-miterlimit="10" d="M 460.800781 280.199219 L 453.601562 280.199219 "/>
<path fill="none" stroke-width="0.75" stroke-linecap="round" stroke-linejoin="round" stroke="rgb(0%, 0%, 0%)" stroke-opacity="1" stroke-miterlimit="10" d="M 460.800781 205.199219 L 453.601562 205.199219 "/>
<path fill="none" stroke-width="0.75" stroke-linecap="round" stroke-linejoin="round" stroke="rgb(0%, 0%, 0%)" stroke-opacity="1" stroke-miterlimit="10" d="M 460.800781 130.199219 L 453.601562 130.199219 "/>
<path fill="none" stroke-width="0.75" stroke-linecap="round" stroke-linejoin="round" stroke="rgb(0%, 0%, 0%)" stroke-opacity="1" stroke-miterlimit="10" d="M 460.800781 55.199219 L 453.601562 55.199219 "/>
<g fill="rgb(0%, 0%, 0%)" fill-opacity="1">
<use xlink:href="#glyph-1-12" x="443.519531" y="365.539062"/>
<use xlink:href="#glyph-1-17" x="443.519531" y="361.542969"/>
<use xlink:href="#glyph-1-18" x="443.519531" y="354.869141"/>
<use xlink:href="#glyph-1-19" x="443.519531" y="351.535156"/>
</g>
<g fill="rgb(0%, 0%, 0%)" fill-opacity="1">
<use xlink:href="#glyph-1-12" x="443.519531" y="290.539062"/>
<use xlink:href="#glyph-1-19" x="443.519531" y="286.542969"/>
<use xlink:href="#glyph-1-18" x="443.519531" y="279.869141"/>
<use xlink:href="#glyph-1-20" x="443.519531" y="276.535156"/>
</g>
<g fill="rgb(0%, 0%, 0%)" fill-opacity="1">
<use xlink:href="#glyph-1-19" x="443.519531" y="213.539062"/>
<use xlink:href="#glyph-1-18" x="443.519531" y="206.865234"/>
<use xlink:href="#glyph-1-19" x="443.519531" y="203.53125"/>
</g>
<g fill="rgb(0%, 0%, 0%)" fill-opacity="1">
<use xlink:href="#glyph-1-19" x="443.519531" y="138.539062"/>
<use xlink:href="#glyph-1-18" x="443.519531" y="131.865234"/>
<use xlink:href="#glyph-1-20" x="443.519531" y="128.53125"/>
</g>
<g fill="rgb(0%, 0%, 0%)" fill-opacity="1">
<use xlink:href="#glyph-1-17" x="443.519531" y="63.539062"/>
<use xlink:href="#glyph-1-18" x="443.519531" y="56.865234"/>
<use xlink:href="#glyph-1-19" x="443.519531" y="53.53125"/>
</g>
<path fill="none" stroke-width="0.75" stroke-linecap="round" stroke-linejoin="round" stroke="rgb(0%, 0%, 0%)" stroke-opacity="1" stroke-miterlimit="10" d="M 501.867188 367.199219 L 736.535156 367.199219 "/>
<path fill="none" stroke-width="0.75" stroke-linecap="round" stroke-linejoin="round" stroke="rgb(0%, 0%, 0%)" stroke-opacity="1" stroke-miterlimit="10" d="M 501.867188 367.199219 L 501.867188 374.398438 "/>
<path fill="none" stroke-width="0.75" stroke-linecap="round" stroke-linejoin="round" stroke="rgb(0%, 0%, 0%)" stroke-opacity="1" stroke-miterlimit="10" d="M 560.535156 367.199219 L 560.535156 374.398438 "/>
<path fill="none" stroke-width="0.75" stroke-linecap="round" stroke-linejoin="round" stroke="rgb(0%, 0%, 0%)" stroke-opacity="1" stroke-miterlimit="10" d="M 619.199219 367.199219 L 619.199219 374.398438 "/>
<path fill="none" stroke-width="0.75" stroke-linecap="round" stroke-linejoin="round" stroke="rgb(0%, 0%, 0%)" stroke-opacity="1" stroke-miterlimit="10" d="M 677.867188 367.199219 L 677.867188 374.398438 "/>
<path fill="none" stroke-width="0.75" stroke-linecap="round" stroke-linejoin="round" stroke="rgb(0%, 0%, 0%)" stroke-opacity="1" stroke-miterlimit="10" d="M 736.535156 367.199219 L 736.535156 374.398438 "/>
<g fill="rgb(0%, 0%, 0%)" fill-opacity="1">
<use xlink:href="#glyph-2-0" x="454.246094" y="422.933594"/>
<use xlink:href="#glyph-2-1" x="456.376305" y="421.442004"/>
<use xlink:href="#glyph-2-1" x="462.763195" y="416.969855"/>
<use xlink:href="#glyph-2-2" x="469.150085" y="412.497707"/>
<use xlink:href="#glyph-2-3" x="473.414252" y="409.511905"/>
<use xlink:href="#glyph-2-4" x="477.678418" y="406.526104"/>
<use xlink:href="#glyph-2-5" x="479.381838" y="405.333356"/>
<use xlink:href="#glyph-2-6" x="483.646005" y="402.347555"/>
<use xlink:href="#glyph-2-2" x="485.776216" y="400.855965"/>
<use xlink:href="#glyph-2-7" x="490.040382" y="397.870163"/>
<use xlink:href="#glyph-2-8" x="492.170594" y="396.378573"/>
<use xlink:href="#glyph-2-9" x="496.43476" y="393.392772"/>
<use xlink:href="#glyph-2-2" x="498.988018" y="391.604961"/>
</g>
<g fill="rgb(0%, 0%, 0%)" fill-opacity="1">
<use xlink:href="#glyph-2-10" x="521.46875" y="417.015625"/>
<use xlink:href="#glyph-2-8" x="526.582755" y="413.43476"/>
<use xlink:href="#glyph-2-5" x="530.846921" y="410.448959"/>
<use xlink:href="#glyph-2-11" x="535.111087" y="407.463158"/>
<use xlink:href="#glyph-2-12" x="540.648139" y="403.586072"/>
<use xlink:href="#glyph-2-7" x="544.912306" y="400.600271"/>
<use xlink:href="#glyph-2-13" x="547.042517" y="399.108681"/>
<use xlink:href="#glyph-2-6" x="550.876148" y="396.424343"/>
<use xlink:href="#glyph-2-5" x="553.00636" y="394.932753"/>
<use xlink:href="#glyph-2-9" x="557.270526" y="391.946952"/>
<use xlink:href="#glyph-2-6" x="559.823785" y="390.159141"/>
</g>
<g fill="rgb(0%, 0%, 0%)" fill-opacity="1">
<use xlink:href="#glyph-2-14" x="588.164062" y="411.257812"/>
<use xlink:href="#glyph-2-5" x="593.278067" y="407.676948"/>
<use xlink:href="#glyph-2-9" x="597.542233" y="404.691146"/>
<use xlink:href="#glyph-2-15" x="600.095492" y="402.903336"/>
<use xlink:href="#glyph-2-16" x="601.798912" y="401.710588"/>
<use xlink:href="#glyph-2-7" x="605.632544" y="399.02625"/>
<use xlink:href="#glyph-2-2" x="607.762755" y="397.53466"/>
<use xlink:href="#glyph-2-17" x="612.026921" y="394.548859"/>
<use xlink:href="#glyph-2-17" x="616.291088" y="391.563057"/>
</g>
<g fill="rgb(0%, 0%, 0%)" fill-opacity="1">
<use xlink:href="#glyph-2-18" x="649.378906" y="409.476562"/>
<use xlink:href="#glyph-2-5" x="653.643073" y="406.490761"/>
<use xlink:href="#glyph-2-6" x="657.907239" y="403.50496"/>
<use xlink:href="#glyph-2-2" x="660.03745" y="402.01337"/>
<use xlink:href="#glyph-2-7" x="664.301617" y="399.027568"/>
<use xlink:href="#glyph-2-2" x="666.431828" y="397.535978"/>
<use xlink:href="#glyph-2-17" x="670.695994" y="394.550177"/>
<use xlink:href="#glyph-2-17" x="674.960161" y="391.564375"/>
</g>
<g fill="rgb(0%, 0%, 0%)" fill-opacity="1">
<use xlink:href="#glyph-2-19" x="723.078125" y="400.082031"/>
<use xlink:href="#glyph-2-20" x="728.19213" y="396.501167"/>
<use xlink:href="#glyph-2-13" x="732.456296" y="393.515365"/>
<use xlink:href="#glyph-2-6" x="736.289928" y="390.831028"/>
</g>
<g clip-path="url(#clip-1)">
<path fill="none" stroke-width="0.75" stroke-linecap="round" stroke-linejoin="round" stroke="rgb(41.960784%, 44.705882%, 50.196078%)" stroke-opacity="1" stroke-dasharray="3 3" stroke-miterlimit="10" d="M 460.800781 205.199219 L 777.601562 205.199219 "/>
</g>
<path fill-rule="nonzero" fill="rgb(12.156863%, 35.294118%, 47.843137%)" fill-opacity="1" stroke-width="0.75" stroke-linecap="round" stroke-linejoin="round" stroke="rgb(12.156863%, 35.294118%, 47.843137%)" stroke-opacity="1" stroke-miterlimit="10" d="M 732.769531 57.601562 C 732.769531 61.199219 727.371094 61.199219 727.371094 57.601562 C 727.371094 54 732.769531 54 732.769531 57.601562 "/>
<path fill-rule="nonzero" fill="rgb(71.764706%, 47.45098%, 12.156863%)" fill-opacity="1" d="M 730.070312 67.800781 L 733.707031 74.097656 L 726.433594 74.097656 Z M 730.070312 67.800781 "/>
<g fill="rgb(0%, 0%, 0%)" fill-opacity="1">
<use xlink:href="#glyph-3-0" x="740.871094" y="62.394531"/>
<use xlink:href="#glyph-3-1" x="748.875" y="62.394531"/>
<use xlink:href="#glyph-3-2" x="755.548828" y="62.394531"/>
</g>
<g fill="rgb(0%, 0%, 0%)" fill-opacity="1">
<use xlink:href="#glyph-3-3" x="740.871094" y="76.792969"/>
<use xlink:href="#glyph-3-4" x="752.197266" y="76.792969"/>
<use xlink:href="#glyph-3-5" x="760.863281" y="76.792969"/>
<use xlink:href="#glyph-3-6" x="768.867188" y="76.792969"/>
</g>
</svg>
